<?xml version="1.0" encoding="UTF-8"?>
<svg xmlns="http://www.w3.org/2000/svg" xmlns:xlink="http://www.w3.org/1999/xlink" width="100px" height="167px" viewBox="0 0 100 167" version="1.1">
<defs>
<filter id="alpha" filterUnits="objectBoundingBox" x="0%" y="0%" width="100%" height="100%">
  <feColorMatrix type="matrix" in="SourceGraphic" values="0 0 0 0 1 0 0 0 0 1 0 0 0 0 1 0 0 0 1 0"/>
</filter>
<mask id="mask0">
  <g filter="url(#alpha)">
<rect x="0" y="0" width="100" height="167" style="fill:rgb(0%,0%,0%);fill-opacity:0.972549;stroke:none;"/>
  </g>
</mask>
<clipPath id="clip1">
  <rect x="0" y="0" width="100" height="167"/>
</clipPath>
<g id="surface5" clip-path="url(#clip1)">
<path style=" stroke:none;fill-rule:evenodd;fill:rgb(79.215686%,81.176471%,81.568627%);fill-opacity:1;" d="M 49.808594 0.0078125 C 49.996094 0.00390625 50.117188 0.0976562 50.183594 0.289062 C 51.492188 4.199219 52.730469 8.125 53.902344 12.070312 C 58.175781 12.039062 62.445312 12.070312 66.71875 12.164062 C 63.199219 14.570312 59.792969 17.109375 56.503906 19.773438 C 57.890625 23.75 59.164062 27.734375 60.3125 31.742188 C 56.851562 29.304688 53.410156 26.832031 50 24.320312 C 46.628906 26.726562 43.285156 29.167969 39.96875 31.652344 C 39.8125 31.78125 39.6875 31.746094 39.59375 31.558594 C 40.875 27.628906 42.175781 23.699219 43.496094 19.773438 C 40.207031 17.109375 36.800781 14.574219 33.28125 12.164062 C 37.554688 12.070312 41.824219 12.042969 46.097656 12.070312 C 47.335938 8.046875 48.574219 4.027344 49.808594 0.0078125 Z M 49.808594 0.0078125 "/>
</g>
<mask id="mask1">
  <g filter="url(#alpha)">
<rect x="0" y="0" width="100" height="167" style="fill:rgb(0%,0%,0%);fill-opacity:0.956863;stroke:none;"/>
  </g>
</mask>
<clipPath id="clip2">
  <rect x="0" y="0" width="100" height="167"/>
</clipPath>
<g id="surface8" clip-path="url(#clip2)">
<path style=" stroke:none;fill-rule:evenodd;fill:rgb(85.490196%,68.627451%,45.098039%);fill-opacity:1;" d="M 18.972656 4.460938 C 19.941406 6.878906 20.8125 9.347656 21.574219 11.882812 C 24.234375 12.039062 26.898438 12.125 29.5625 12.160156 C 27.394531 13.707031 25.226562 15.253906 23.058594 16.796875 C 24.023438 19.257812 24.796875 21.761719 25.382812 24.3125 C 23.242188 22.808594 21.140625 21.265625 19.066406 19.675781 C 16.992188 21.265625 14.886719 22.8125 12.753906 24.3125 C 13.335938 21.761719 14.105469 19.257812 15.078125 16.796875 C 12.910156 15.25 10.738281 13.703125 8.570312 12.160156 C 11.234375 12.125 13.898438 12.039062 16.558594 11.882812 C 17.363281 9.410156 18.167969 6.933594 18.972656 4.460938 Z M 80.839844 4.460938 C 81.808594 6.878906 82.675781 9.347656 83.441406 11.882812 C 86.101562 12.039062 88.765625 12.125 91.429688 12.160156 C 89.261719 13.707031 87.089844 15.253906 84.921875 16.796875 C 85.886719 19.257812 86.664062 21.761719 87.246094 24.3125 C 85.109375 22.808594 83.007812 21.265625 80.933594 19.675781 C 78.859375 21.265625 76.753906 22.8125 74.617188 24.3125 C 75.199219 21.761719 75.972656 19.257812 76.941406 16.796875 C 74.773438 15.25 72.605469 13.703125 70.4375 12.160156 C 73.101562 12.125 75.765625 12.039062 78.425781 11.882812 C 79.226562 9.410156 80.035156 6.933594 80.839844 4.460938 Z M 80.839844 4.460938 "/>
</g>
<mask id="mask2">
  <g filter="url(#alpha)">
<rect x="0" y="0" width="100" height="167" style="fill:rgb(0%,0%,0%);fill-opacity:0.992157;stroke:none;"/>
  </g>
</mask>
<clipPath id="clip3">
  <rect x="0" y="0" width="100" height="167"/>
</clipPath>
<g id="surface11" clip-path="url(#clip3)">
<path style=" stroke:none;fill-rule:evenodd;fill:rgb(99.607843%,4.313725%,3.921569%);fill-opacity:1;" d="M 99.972656 62.164062 C 98.890625 62.800781 97.84375 63.480469 96.8125 64.207031 L 96.8125 56.597656 C 91.863281 59.398438 86.996094 62.367188 82.226562 65.503906 C 82.132812 68.59375 82.101562 71.6875 82.132812 74.785156 C 80.703125 75.964844 79.214844 77.078125 77.671875 78.125 C 77.640625 66.496094 77.671875 54.867188 77.765625 43.242188 C 80.691406 42.105469 83.636719 40.992188 86.589844 39.902344 C 86.746094 45.15625 86.835938 50.414062 86.867188 55.667969 C 90.117188 53.878906 93.367188 52.113281 96.621094 50.382812 C 96.804688 44.363281 96.867188 38.335938 96.804688 32.292969 C 87.046875 34.675781 77.355469 37.273438 67.730469 40.085938 C 67.632812 55.296875 67.605469 70.515625 67.632812 85.726562 C 61.804688 89.785156 56.046875 93.957031 50.355469 98.25 C 50.113281 98.371094 49.859375 98.371094 49.617188 98.25 C 48.273438 97.242188 46.914062 96.285156 45.53125 95.371094 C 45.46875 80.839844 45.53125 66.304688 45.714844 51.773438 C 47.117188 52.347656 48.546875 52.835938 49.988281 53.257812 C 51.433594 52.84375 52.859375 52.347656 54.265625 51.773438 C 54.386719 58.949219 54.507812 66.121094 54.636719 73.296875 C 58.035156 71.554688 61.351562 69.695312 64.574219 67.730469 C 64.730469 58.78125 64.699219 49.847656 64.480469 40.917969 C 59.640625 42.066406 54.816406 43.269531 49.988281 44.539062 C 45.207031 43.457031 40.46875 42.222656 35.777344 40.824219 C 35.632812 40.851562 35.507812 40.914062 35.402344 41.007812 C 35.308594 56.53125 35.28125 72.054688 35.308594 87.578125 C 34.316406 86.960938 33.324219 86.34375 32.335938 85.726562 C 32.371094 70.515625 32.335938 55.296875 32.242188 40.085938 C 22.578125 37.386719 12.886719 34.785156 3.164062 32.292969 L 3.164062 64.203125 C 2.140625 63.472656 1.085938 62.792969 0.00390625 62.160156 C -0.0546875 50.777344 0.00390625 39.398438 0.191406 28.023438 C 16.796875 32.4375 33.390625 36.890625 49.976562 41.382812 C 66.566406 36.890625 83.164062 32.4375 99.765625 28.023438 C 99.972656 39.40625 100.039062 50.78125 99.972656 62.164062 Z M 99.972656 62.164062 "/>
</g>
<mask id="mask3">
  <g filter="url(#alpha)">
<rect x="0" y="0" width="100" height="167" style="fill:rgb(0%,0%,0%);fill-opacity:0.988235;stroke:none;"/>
  </g>
</mask>
<clipPath id="clip4">
  <rect x="0" y="0" width="100" height="167"/>
</clipPath>
<g id="surface14" clip-path="url(#clip4)">
<path style=" stroke:none;fill-rule:evenodd;fill:rgb(0%,0%,0%);fill-opacity:1;" d="M 0.0234375 62.164062 C 1.105469 62.800781 2.152344 63.480469 3.183594 64.207031 C 3.148438 77.011719 3.183594 89.8125 3.277344 102.613281 C 6.515625 106.789062 9.796875 110.933594 13.125 115.042969 L 13.308594 71.628906 C 16.28125 73.855469 19.257812 76.082031 22.226562 78.308594 L 22.410156 126.914062 C 25.648438 131.09375 28.933594 135.238281 32.257812 139.34375 C 32.355469 121.472656 32.382812 103.597656 32.355469 85.726562 C 33.347656 86.34375 34.339844 86.960938 35.324219 87.578125 C 35.292969 106.132812 35.324219 124.6875 35.417969 143.242188 C 40.105469 149.558594 44.96875 155.742188 50.003906 161.792969 C 54.964844 155.753906 59.824219 149.628906 64.589844 143.425781 C 64.6875 127.839844 64.714844 112.253906 64.6875 96.667969 C 64.492188 96.640625 64.308594 96.675781 64.128906 96.765625 C 60.890625 99.324219 57.695312 101.953125 54.558594 104.652344 L 54.375 148.066406 C 52.949219 149.769531 51.492188 151.4375 50.011719 153.074219 C 48.527344 151.4375 47.074219 149.769531 45.648438 148.066406 C 45.550781 130.5 45.523438 112.9375 45.550781 95.371094 C 46.933594 96.28125 48.300781 97.242188 49.636719 98.25 C 49.882812 98.371094 50.132812 98.371094 50.378906 98.25 C 56.070312 93.957031 61.828125 89.785156 67.65625 85.726562 C 67.625 103.597656 67.65625 121.472656 67.75 139.34375 C 77.105469 127.53125 86.457031 115.722656 95.804688 103.90625 C 96.1875 103.460938 96.496094 102.964844 96.734375 102.417969 C 96.828125 89.679688 96.855469 76.9375 96.828125 64.195312 C 97.855469 63.46875 98.90625 62.789062 99.988281 62.152344 C 100.023438 76.007812 99.988281 89.863281 99.894531 103.714844 C 83.367188 124.890625 66.738281 145.980469 50.011719 166.984375 C 33.351562 145.988281 16.726562 124.960938 0.128906 103.90625 C 0.0234375 89.996094 -0.00390625 76.082031 0.0234375 62.164062 Z M 0.0234375 62.164062 "/>
</g>
</defs>
<g id="surface1">
<use xlink:href="#surface5" mask="url(#mask0)"/>
<use xlink:href="#surface8" mask="url(#mask1)"/>
<use xlink:href="#surface11" mask="url(#mask2)"/>
<path style=" stroke:none;fill-rule:evenodd;fill:rgb(99.215686%,99.215686%,99.215686%);fill-opacity:1;" d="M 32.347656 85.726562 C 32.382812 103.597656 32.347656 121.472656 32.253906 139.34375 C 28.925781 135.238281 25.644531 131.089844 22.40625 126.914062 L 22.222656 78.308594 C 19.25 76.082031 16.273438 73.855469 13.304688 71.628906 L 13.121094 115.042969 C 9.792969 110.933594 6.511719 106.789062 3.273438 102.613281 C 3.175781 89.8125 3.148438 77.011719 3.175781 64.207031 L 3.175781 32.296875 C 12.898438 34.792969 22.582031 37.390625 32.253906 40.089844 C 32.347656 55.296875 32.382812 70.515625 32.347656 85.726562 Z M 32.347656 85.726562 "/>
<path style=" stroke:none;fill-rule:evenodd;fill:rgb(99.215686%,98.823529%,98.823529%);fill-opacity:1;" d="M 77.679688 78.117188 C 77.644531 92.34375 77.679688 106.566406 77.773438 120.792969 C 80.816406 117.320312 83.785156 113.796875 86.691406 110.21875 C 86.8125 97.355469 86.8125 84.492188 86.691406 71.628906 C 85.214844 72.753906 83.691406 73.804688 82.136719 74.785156 C 82.101562 71.6875 82.136719 68.601562 82.230469 65.503906 C 87.003906 62.367188 91.863281 59.398438 96.816406 56.597656 L 96.816406 64.207031 C 96.851562 76.949219 96.816406 89.6875 96.722656 102.429688 C 96.488281 102.976562 96.175781 103.472656 95.792969 103.917969 C 86.441406 115.726562 77.085938 127.539062 67.742188 139.355469 C 67.644531 121.484375 67.617188 103.609375 67.644531 85.738281 C 67.613281 70.527344 67.644531 55.308594 67.742188 40.097656 C 77.367188 37.285156 87.058594 34.6875 96.816406 32.304688 C 96.878906 38.347656 96.816406 44.375 96.632812 50.394531 C 93.378906 52.125 90.128906 53.886719 86.878906 55.679688 C 86.847656 50.421875 86.757812 45.167969 86.601562 39.914062 C 83.648438 41.003906 80.703125 42.117188 77.777344 43.25 C 77.679688 54.867188 77.648438 66.488281 77.679688 78.117188 Z M 77.679688 78.117188 "/>
<path style=" stroke:none;fill-rule:evenodd;fill:rgb(100%,4.313725%,3.921569%);fill-opacity:1;" d="M 13.214844 39.902344 C 16.246094 40.9375 19.25 42.050781 22.226562 43.242188 C 22.382812 51.589844 22.351562 59.9375 22.132812 68.289062 C 19.171875 66.457031 16.234375 64.601562 13.308594 62.722656 C 13.214844 55.113281 13.179688 47.503906 13.214844 39.902344 Z M 13.214844 39.902344 "/>
<path style=" stroke:none;fill-rule:evenodd;fill:rgb(98.431373%,97.647059%,97.647059%);fill-opacity:1;" d="M 45.542969 95.371094 C 45.507812 112.9375 45.542969 130.5 45.636719 148.066406 C 47.0625 149.769531 48.515625 151.4375 50 153.074219 C 51.484375 151.4375 52.9375 149.769531 54.363281 148.066406 L 54.546875 104.652344 C 57.6875 101.957031 60.875 99.328125 64.117188 96.765625 C 64.296875 96.675781 64.480469 96.640625 64.675781 96.667969 C 64.707031 112.253906 64.675781 127.839844 64.582031 143.425781 C 59.820312 149.628906 54.960938 155.753906 49.996094 161.792969 C 44.957031 155.742188 40.097656 149.558594 35.410156 143.242188 C 35.3125 124.6875 35.285156 106.132812 35.3125 87.578125 C 35.28125 72.054688 35.3125 56.53125 35.410156 41.007812 C 35.515625 40.914062 35.636719 40.847656 35.78125 40.824219 C 40.476562 42.222656 45.210938 43.457031 49.996094 44.539062 C 54.820312 43.269531 59.648438 42.066406 64.484375 40.917969 C 64.703125 49.84375 64.730469 58.78125 64.582031 67.730469 C 61.351562 69.695312 58.042969 71.554688 54.644531 73.296875 C 54.519531 66.121094 54.398438 58.949219 54.269531 51.773438 C 52.863281 52.347656 51.4375 52.835938 49.996094 53.257812 C 48.550781 52.84375 47.125 52.347656 45.71875 51.773438 C 45.542969 66.304688 45.480469 80.839844 45.542969 95.371094 Z M 45.542969 95.371094 "/>
<use xlink:href="#surface14" mask="url(#mask3)"/>
<path style=" stroke:none;fill-rule:evenodd;fill:rgb(0%,0%,0%);fill-opacity:1;" d="M 77.679688 78.117188 C 79.222656 77.070312 80.710938 75.957031 82.136719 74.777344 C 83.691406 73.796875 85.207031 72.746094 86.691406 71.621094 C 86.8125 84.484375 86.8125 97.347656 86.691406 110.210938 C 83.785156 113.792969 80.8125 117.316406 77.773438 120.785156 C 77.679688 106.566406 77.648438 92.34375 77.679688 78.117188 Z M 77.679688 78.117188 "/>
</g>
</svg>
