<?xml version="1.0" standalone="no"?>
<!DOCTYPE svg PUBLIC "-//W3C//DTD SVG 20010904//EN"
 "http://www.w3.org/TR/2001/REC-SVG-20010904/DTD/svg10.dtd">
<svg version="1.0" xmlns="http://www.w3.org/2000/svg"
 width="400.000000pt" height="400.000000pt" viewBox="0 0 400.000000 400.000000"
 preserveAspectRatio="xMidYMid meet">

<g transform="translate(0.000000,400.000000) scale(0.100000,-0.100000)"
fill="#000000" stroke="none">
<path d="M1815 3989 c-780 -73 -1458 -609 -1705 -1347 -170 -509 -135 -1049
100 -1527 288 -585 841 -989 1496 -1092 134 -21 428 -23 564 -4 566 79 1075
398 1393 874 471 704 442 1642 -71 2314 -418 548 -1094 846 -1777 782z m540
-148 c771 -160 1345 -742 1490 -1510 34 -178 36 -466 5 -642 -139 -788 -751
-1400 -1539 -1539 -107 -19 -305 -28 -435 -19 -763 49 -1425 566 -1659 1294
-68 211 -82 310 -82 575 0 206 3 249 23 349 75 368 237 680 492 945 295 306
652 493 1075 561 135 22 497 14 630 -14z"/>
<path d="M1827 3713 c-14 -15 -22 -15 -47 -6 -33 12 -35 11 -19 -19 9 -16 7
-24 -12 -44 l-22 -24 31 0 c25 0 35 -6 44 -25 l12 -26 12 31 c10 22 20 30 39
30 32 0 32 13 0 28 -21 10 -24 16 -19 42 7 35 5 36 -19 13z"/>
<path d="M2153 3704 c4 -23 0 -34 -21 -51 l-27 -22 31 -1 c26 0 33 -5 41 -32
l10 -33 13 28 c10 21 20 27 43 27 l30 0 -20 23 c-15 16 -18 28 -13 42 13 32
11 35 -15 23 -19 -9 -29 -7 -51 7 l-27 17 6 -28z"/>
<path d="M1452 3632 c-11 -20 -20 -23 -48 -20 -39 5 -41 2 -17 -24 13 -15 14
-23 5 -44 -16 -34 -16 -35 15 -23 23 9 30 7 44 -10 23 -28 29 -26 29 7 0 22 7
32 27 41 l28 13 -32 13 c-23 10 -32 21 -35 42 l-3 28 -13 -23z"/>
<path d="M2530 3623 c0 -28 -4 -34 -32 -41 l-33 -9 34 -17 c27 -14 32 -22 28
-42 -5 -29 7 -31 26 -4 12 17 19 19 41 10 37 -14 37 -14 18 19 -15 28 -15 31
1 49 23 26 22 29 -13 24 -23 -3 -35 2 -50 19 l-19 24 -1 -32z"/>
<path d="M1083 3460 c-9 -23 -17 -30 -39 -30 l-27 0 22 -23 c18 -20 20 -28 12
-50 -12 -31 -9 -33 24 -11 22 14 26 14 49 -1 l26 -17 -6 31 c-5 25 -2 35 17
51 l24 19 -31 1 c-24 0 -33 6 -45 30 l-14 31 -12 -31z"/>
<path d="M2892 3461 c-9 -26 -16 -31 -44 -31 l-33 -1 28 -23 c24 -20 27 -26
18 -49 -12 -31 -9 -33 23 -12 20 13 25 13 42 0 28 -21 35 -18 23 12 -9 25 -7
30 18 50 l28 23 -33 0 c-27 0 -35 5 -46 31 l-13 31 -11 -31z"/>
<path d="M2300 3253 c-14 -2 -82 -18 -152 -34 l-128 -31 0 -150 c0 -138 1
-149 18 -144 49 15 207 46 281 55 148 19 184 -6 174 -116 -5 -43 -2 -54 17
-73 20 -20 29 -22 89 -17 95 8 437 96 785 202 l86 26 -41 59 c-45 64 -145 183
-158 188 -4 1 -83 -20 -175 -47 -296 -89 -510 -135 -571 -123 -33 6 -49 51
-41 113 5 38 3 57 -9 75 -14 22 -22 24 -83 23 -37 -1 -78 -4 -92 -6z"/>
<path d="M1115 3091 c-132 -34 -235 -155 -243 -288 -7 -102 30 -173 111 -215
52 -26 142 -21 205 11 137 70 218 254 165 372 -35 77 -83 113 -163 122 -25 3
-58 2 -75 -2z m48 -31 c5 -20 -33 -60 -57 -60 -61 1 -76 42 -23 65 46 20 74
19 80 -5z m99 -82 c-1 -5 -2 -23 -2 -41 0 -30 -4 -35 -38 -46 -33 -11 -43 -11
-70 3 -26 14 -32 22 -32 51 0 26 7 39 32 59 l32 25 40 -22 c21 -12 38 -25 38
-29z m-168 6 c11 -4 16 -19 16 -44 0 -33 -6 -43 -39 -69 -31 -25 -45 -30 -70
-25 -28 6 -31 10 -31 42 0 64 69 117 124 96z m256 -45 c0 -10 3 -25 7 -35 5
-13 3 -16 -9 -12 -9 4 -20 2 -25 -3 -21 -21 -43 2 -43 46 0 37 3 44 23 47 24
4 47 -16 47 -43z m-391 -83 c1 -22 -36 -66 -55 -66 -22 0 -25 17 -13 64 17 67
66 68 68 2z m323 17 c34 -31 15 -105 -32 -121 -21 -8 -34 -6 -58 10 -31 20
-31 20 -17 55 8 20 15 37 15 39 0 3 58 31 69 33 3 1 13 -6 23 -16z m-238 -80
l23 -38 -29 -37 c-45 -58 -87 -50 -107 20 -7 24 -4 35 16 61 34 43 66 41 97
-6z m142 -47 c19 -14 19 -15 -3 -59 -17 -35 -28 -46 -53 -51 -53 -10 -75 -7
-92 13 -14 17 -14 21 10 51 25 32 71 59 103 60 8 0 24 -6 35 -14z m94 -16 c0
-5 8 -6 17 -3 14 5 13 1 -5 -25 -31 -42 -70 -72 -88 -65 -8 3 -14 9 -14 14 0
20 35 79 49 82 29 8 41 7 41 -3z m-257 -88 c19 -17 20 -21 8 -41 -8 -12 -14
-12 -40 -2 -43 18 -57 37 -41 56 14 17 45 12 73 -13z"/>
<path d="M1505 2894 c-105 -129 -139 -181 -161 -248 -12 -36 -45 -84 -113
-166 -53 -63 -100 -120 -106 -127 -15 -19 -164 102 -209 169 -40 61 -90 111
-196 197 -95 77 -116 79 -177 16 -52 -55 -56 -89 -15 -127 78 -73 231 -174
297 -197 59 -20 202 -112 220 -141 2 -4 -113 -146 -256 -316 -143 -170 -268
-324 -277 -341 -14 -30 -14 -34 3 -53 40 -44 48 -37 334 308 150 180 276 328
280 330 4 1 129 -92 277 -208 148 -115 277 -210 286 -210 23 0 51 44 43 69 -3
10 -124 110 -268 221 -144 112 -261 208 -261 215 1 7 43 63 95 124 64 77 109
121 143 141 28 16 65 42 83 57 51 45 233 263 233 279 0 45 -82 114 -136 114
-29 0 -41 -10 -119 -106z m215 36 c11 -11 20 -28 20 -38 0 -15 -178 -232 -226
-274 -10 -9 -45 -32 -76 -51 -42 -25 -85 -67 -159 -156 -89 -107 -127 -138
-117 -96 4 16 520 634 531 635 4 0 16 -9 27 -20z m-587 -660 c317 -245 576
-451 577 -458 0 -8 -8 -12 -19 -10 -11 2 -192 137 -402 302 -229 179 -396 302
-416 308 -19 5 -55 18 -80 29 -52 22 -269 183 -277 206 -6 15 23 75 34 71 4
-2 266 -203 583 -448z m-23 -51 c0 -11 -515 -634 -542 -657 -8 -6 -19 -7 -27
-3 -10 7 60 96 264 340 251 298 305 355 305 320z"/>
<path d="M3385 2644 c-464 -135 -826 -215 -879 -194 -29 11 -39 47 -31 115 15
114 -49 121 -382 39 l-73 -17 0 -149 c0 -81 1 -148 3 -148 1 0 52 11 112 25
61 14 155 28 210 32 95 5 101 4 120 -17 16 -18 19 -34 17 -83 -1 -41 3 -67 13
-84 36 -54 175 -26 965 193 129 36 239 69 243 73 10 10 -80 283 -93 280 -3 -1
-104 -30 -225 -65z"/>
<path d="M1690 2621 c-75 -23 -147 -89 -181 -166 -25 -56 -34 -141 -20 -191
25 -92 95 -138 201 -132 75 4 125 30 155 80 30 52 -4 65 -48 19 -37 -40 -107
-66 -144 -54 -60 20 -91 116 -73 225 15 96 43 143 102 174 36 19 103 18 133
-2 25 -16 25 -16 25 20 l0 36 -62 -1 c-35 0 -74 -4 -88 -8z"/>
<path d="M505 2346 c-153 -73 -226 -294 -134 -410 70 -89 236 -87 311 3 26 30
28 61 6 61 -6 0 -28 -15 -49 -34 -130 -118 -245 -16 -209 185 14 75 28 104 69
143 38 36 117 48 155 22 34 -22 36 -21 36 19 l0 35 -67 0 c-51 0 -81 -6 -118
-24z"/>
<path d="M3680 2119 c-149 -44 -701 -180 -866 -214 -98 -20 -213 -39 -254 -42
-97 -7 -106 1 -103 102 2 62 -1 75 -18 91 -34 30 -141 20 -351 -33 l-68 -17 0
-149 0 -149 28 7 c116 29 219 47 285 48 72 2 80 0 98 -22 15 -19 19 -36 17
-86 -5 -113 25 -123 230 -81 143 30 594 138 872 209 l205 52 3 153 c1 83 -1
151 -5 151 -5 -1 -37 -10 -73 -20z"/>
<path d="M1266 1966 c-46 -15 -56 -30 -27 -46 20 -10 21 -20 21 -138 l0 -127
-88 90 c-48 50 -102 107 -120 128 -28 32 -38 37 -76 37 -53 0 -76 -21 -58 -51
8 -13 12 -84 12 -229 0 -226 1 -231 50 -192 22 18 23 23 21 188 l-2 169 31
-30 c17 -17 75 -79 128 -138 80 -89 101 -107 122 -105 l25 3 5 210 c3 116 9
218 14 228 10 20 0 21 -58 3z"/>
<path d="M3495 1478 c-435 -122 -803 -211 -958 -233 -43 -6 -50 -4 -77 24 -17
16 -30 40 -30 53 -2 100 -7 139 -17 149 -25 25 -283 -18 -862 -142 -361 -77
-1021 -226 -1052 -237 -18 -7 -16 -13 32 -82 271 -394 669 -657 1139 -752 100
-20 143 -23 335 -22 199 0 232 2 346 27 537 114 976 446 1223 927 55 107 144
336 134 344 -1 2 -97 -23 -213 -56z m-1815 -498 l0 -180 -43 0 -43 0 4 145 5
145 -28 10 c-15 6 -25 14 -21 17 6 7 100 39 119 42 4 1 7 -80 7 -179z m262
153 c70 -63 63 -200 -14 -269 -28 -26 -101 -64 -123 -64 -25 0 -17 16 24 44
32 23 77 84 67 93 -1 2 -16 -3 -33 -9 -87 -33 -148 79 -93 170 37 60 125 78
172 35z m291 0 c32 -29 47 -77 47 -153 0 -119 -42 -180 -125 -180 -74 0 -115
63 -115 175 0 89 31 152 85 176 28 12 84 3 108 -18z m211 -157 l3 -176 -45 0
-44 0 2 103 c5 179 3 197 -20 197 -28 0 -26 30 3 31 12 0 38 6 57 13 19 8 36
12 38 11 1 -1 4 -82 6 -179z m-299 -376 l88 -5 -70 -54 -71 -53 25 -75 c14
-41 23 -76 20 -79 -2 -3 -34 16 -71 41 -40 28 -71 43 -78 39 -7 -4 -37 -25
-66 -47 -30 -21 -55 -37 -58 -35 -4 5 31 131 41 147 3 6 -27 34 -66 63 l-73
53 90 5 89 5 23 65 c12 36 25 72 28 80 4 9 17 -18 33 -65 l28 -80 88 -5z"/>
<path d="M1830 1109 c-14 -26 -8 -102 10 -124 7 -8 25 -15 41 -15 28 0 29 1
29 53 0 28 -6 63 -13 77 -17 33 -52 38 -67 9z"/>
<path d="M2139 1114 c-22 -27 -20 -231 4 -267 19 -30 42 -27 51 6 11 41 6 221
-7 246 -16 31 -30 36 -48 15z"/>
</g>
</svg>
