<?xml version="1.0" encoding="UTF-8"?>
<svg width="325" height="400" version="1.1" xmlns="http://www.w3.org/2000/svg">
 <path d="m235.69 57.549 68.501 58.524-11.297 21.161-0.84257 1.7363-0.7933 1.8041-0.74389 1.875-0.69128 1.9407-0.63587 2.0013-0.57987 2.0625-0.52139 2.1194-0.46154 2.1748-0.39936 2.2224-0.3353 2.2643-0.27084 2.31-0.20581 2.3494-0.13872 2.3773-0.0712 2.4078-3e-3 2.4365 0.0651 2.4548 0.1346 2.4679 0.20385 2.4812 0.27359 2.489 0.34197 2.4907 0.41132 2.4866 0.48019 2.4821 0.54954 2.4726 0.61704 2.4607 0.68345 2.439 0.74947 2.4128 0.81607 2.389 0.88091 2.3596 0.94409 2.3228 1.0072 2.2852 1.5175 3.1859 3.0729 7.351 2.5864 7.3931 2.058 7.3506 1.5243 7.3025 0.98245 7.2407 0.43653 7.1606-0.11143 7.048-0.65186 6.9034-1.1792 6.7166-1.6798 6.4919-2.1487 6.2318-2.5774 5.948-2.9642 5.6415-3.3032 5.3243-3.6019 5.0056-3.8608 4.695-4.084 4.3888-4.2725 4.0963-4.4375 3.818-4.5754 3.5552-4.6955 3.3051-4.7931 3.0677-4.8755 2.8431-4.9425 2.6305-4.9939 2.426-5.0301 2.2309-5.0525 2.0428-5.0634 1.8634-5.0601 1.6873-5.0429 1.5186-5.0142 1.3534-4.4071 1.0573-1.7938 0.46744-1.8323 0.49273-1.7307 0.48127-1.6362 0.47165-1.543 0.46048-1.4468 0.44801-1.3592 0.43791-1.28 0.42858-1.194 0.41593-1.1139 0.40467-1.0414 0.39425-0.97577 0.38601-0.90672 0.37346-0.84678 0.36503-0.79558 0.35766-0.74966 0.35198-0.71052 0.34766-0.66785 0.34058-0.63684 0.33815-0.61872 0.34208-0.60731 0.34843-0.59535 0.35452-0.5934 0.36532-0.60447 0.38405-0.61988 0.40515-0.62871 0.42183-0.65128 0.44692-0.68482 0.4799-0.71494 0.50893-0.74965 0.5417-0.7842 0.5717-15.501 11.404-15.512-11.401-0.78889-0.57504-0.7533-0.54425-0.71709-0.51109-0.67992-0.47666-0.64813-0.44488-0.62989-0.4224-0.61979-0.40515-0.60457-0.38405-0.59368-0.36532-0.59507-0.35452-0.60732-0.34843-0.6187-0.34208-0.63676-0.33815-0.66794-0.34058-0.71052-0.34766-0.74967-0.35198-0.79557-0.35766-0.84668-0.36503-0.90682-0.37346-0.97578-0.38601-1.0414-0.39425-1.1139-0.40467-1.194-0.41593-1.28-0.42858-1.3593-0.43791-1.4467-0.44801-1.5431-0.46048-1.6365-0.47165-1.7304-0.48127-1.8322-0.49273-1.7938-0.46744-4.4072-1.0573-5.0142-1.3534-5.0428-1.5186-5.0601-1.6873-5.0635-1.8634-5.0525-2.0428-5.0301-2.2309-4.9939-2.426-4.9428-2.6305-4.8752-2.8431-4.7932-3.0677-4.6955-3.3051-4.5754-3.5552-4.4375-3.818-4.2726-4.0963-4.084-4.3888-3.8607-4.695-3.6019-5.0056-3.3035-5.3243-2.964-5.6415-2.5773-5.948-2.1486-6.2318-1.6798-6.4919-1.1793-6.7166-0.65176-6.9034-0.11154-7.048 0.43654-7.1606 0.98245-7.2407 1.5244-7.3025 2.058-7.3506 2.5863-7.3931 3.0727-7.351 1.5177-3.1859 1.0072-2.2852 0.94409-2.3228 0.88062-2.3596 0.81647-2.389 0.74937-2.4128 0.68354-2.439 0.61704-2.4607 0.54945-2.4726 0.48019-2.4821 0.41132-2.4866 0.34197-2.4907 0.27369-2.489 0.20385-2.4812 0.13459-2.4679 0.06504-2.4548-0.0029-2.4365-0.07112-2.4078-0.13881-2.3773-0.20571-2.3494-0.27114-2.31-0.3351-2.2643-0.39936-2.2224-0.46155-2.1748-0.52139-2.1194-0.57976-2.0625-0.63597-2.0013-0.69159-1.9407-0.74358-1.875-0.79332-1.8041-0.84256-1.7363-11.297-21.161 68.373-58.416 18.503 8.5449 3.8691 1.6712 3.8418 1.5447 3.816 1.4195 3.7937 1.2978 3.7684 1.1762 3.7443 1.0567 3.7222 0.93791 3.7023 0.82284 3.6817 0.7066 3.6625 0.5934 3.6466 0.48048 3.6331 0.36983 3.6158 0.25887 3.6063 0.1496 3.598 0.04091 3.5879-0.0676 3.5821-0.17599 3.5785-0.28359 3.5785-0.39211 3.5765-0.49941 3.5758-0.60821 3.5802-0.71738 3.5866-0.82726 3.5904-0.93683 3.598-1.0481 3.6052-1.1593 3.6138-1.2721 3.6241-1.3853 3.6341-1.4999 3.6444-1.6151 18.355-8.6919z" fill="#231f20"/>
 <path d="m234.18 69.471-12.855 6.0879-3.8691 1.7148-3.8652 1.5957-3.8633 1.4766-3.8594 1.3574-3.8574 1.2402-3.8535 1.123-3.8535 1.0059-3.8555 0.88867-3.8516 0.77148-3.8535 0.65625-3.8574 0.53906-3.8613 0.42188-3.8633 0.30664-3.8691 0.18945-3.875 0.074219-3.8848-0.044922-3.8906-0.16016-3.9023-0.2793-3.9141-0.40039-3.9258-0.51562-3.9395-0.63867-3.9531-0.75976-3.9688-0.88086-3.9844-1.0039-4.002-1.1289-4.0176-1.2559-4.0371-1.3809-4.0547-1.5078-4.0723-1.6367-4.0918-1.7676-13.039-6.0215-57.365 49.012 7.4395 13.934 1.0137 2.0898 0.94922 2.1562 0.88086 2.2226 0.81445 2.2832 0.74414 2.3418 0.67383 2.3984 0.60156 2.4492 0.53125 2.5 0.45703 2.543 0.38281 2.582 0.30664 2.6211 0.23242 2.6562 0.15625 2.6836 0.080078 2.707 0.003906 2.7324-0.074219 2.748-0.15039 2.7598-0.22656 2.7695-0.30469 2.7754-0.38086 2.7754-0.45898 2.7695-0.53516 2.7637-0.61133 2.752-0.6875 2.7383-0.75977 2.7168-0.83789 2.6934-0.91016 2.666-0.98438 2.6367-1.0566 2.6016-1.1289 2.5625-1.4766 3.0957-2.8555 6.834-2.375 6.7871-1.873 6.6934-1.377 6.5918-0.87891 6.4844-0.38867 6.3672 0.097656 6.2305 0.57422 6.0762 1.0352 5.8926 1.4707 5.6894 1.8848 5.4629 2.2637 5.2266 2.6133 4.9726 2.9258 4.7148 3.207 4.457 3.457 4.2051 3.6797 3.9531 3.873 3.7129 4.0469 3.4824 4.1953 3.2598 4.3281 3.0469 4.4414 2.8418 4.5371 2.6465 4.6172 2.457 4.6816 2.2734 4.7285 2.0977 4.7637 1.9258 4.7813 1.7598 4.7871 1.5957 4.7734 1.4394 4.752 1.2812 4.3652 1.0469 1.9219 0.5 1.9082 0.51367 1.8125 0.50586 1.7227 0.49609 1.6328 0.48633 1.5469 0.48047 1.4629 0.4707 1.3867 0.46485 1.3106 0.45507 1.2344 0.44922 1.168 0.44141 1.1055 0.4375 1.043 0.42969 0.98633 0.42578 0.93555 0.41992 0.89258 0.41992 0.85351 0.41602 0.8125 0.41601 0.78125 0.41407 0.75586 0.41796 0.74219 0.42578 0.72461 0.43165 0.71484 0.43945 0.7168 0.45703 0.7207 0.4707 0.72266 0.48438 0.73242 0.50195 0.75 0.52734 0.77344 0.55079 0.79883 0.57617 0.82031 0.59765 9.8223 7.2207 9.8164-7.2227 0.82031-0.59766 0.79492-0.57226 0.77149-0.55078 0.7539-0.52735 0.73243-0.5039 0.72265-0.48438 0.72071-0.4707 0.71679-0.45703 0.71485-0.43945 0.72461-0.43165 0.74218-0.42578 0.75782-0.41796 0.77929-0.41407 0.8125-0.41601 0.85352-0.41602 0.89258-0.41992 0.9375-0.41992 0.98632-0.42578 1.043-0.42969 1.1035-0.4375 1.1699-0.44141 1.2344-0.44922 1.3086-0.45507 1.3887-0.46485 1.4629-0.4707 1.5449-0.48047 1.6348-0.48633 1.7207-0.49609 1.8145-0.50586 1.9082-0.51367 1.9199-0.5 4.3672-1.0469 4.75-1.2812 4.7754-1.4375 4.7852-1.5976 4.7812-1.7598 4.7637-1.9258 4.7305-2.0977 4.6797-2.2734 4.6172-2.457 4.5371-2.6465 4.4414-2.8418 4.3281-3.0469 4.1973-3.2598 4.0449-3.4824 3.873-3.7129 3.6797-3.9531 3.457-4.2051 3.207-4.457 2.9258-4.7148 2.6133-4.9726 2.2637-5.2266 1.8848-5.4629 1.4726-5.6894 1.0332-5.8926 0.57422-6.0762 0.09766-6.2305-0.38672-6.3672-0.88086-6.4844-1.375-6.5918-1.875-6.6934-2.373-6.7871-2.8574-6.834-1.4746-3.0957-1.1289-2.5625-1.0586-2.6016-0.98437-2.6367-0.91016-2.666-0.83593-2.6934-0.76172-2.7168-0.6875-2.7383-0.61133-2.752-0.53516-2.7637-0.45703-2.7695-0.38086-2.7754-0.30469-2.7754-0.22851-2.7695-0.15039-2.7598-0.07227-2.748 0.00196-2.7305 0.08007-2.709 0.15625-2.6836 0.23242-2.6562 0.3086-2.6211 0.38281-2.582 0.45508-2.543 0.53125-2.5 0.60156-2.4492 0.67578-2.3984 0.74414-2.3418 0.8125-2.2832 0.88282-2.2226 0.94726-2.1562 1.0137-2.0898 7.4395-13.934-57.441-49.078h-0.00195zm-1.9356 15.191 1.4922 1.2773h0.0039l40.066 34.232 1.8594 1.5898-1.1953 2.1328-0.01562 0.03125-0.00586-0.0039c-2.0327 3.6397-3.772 7.521-5.2227 11.59-1.4521 4.0724-2.6083 8.3275-3.4707 12.713-4.4516 22.634-1.0445 48.516 9.8047 70.453l0.04687 0.09375c3.0903 6.8426 5.2854 13.373 6.6856 19.598 4.7621 21.171 0.27936 38.586-9.4785 52.562-9.6444 13.814-24.414 24.159-40.438 31.395-9.6605 4.3627-19.803 7.6035-29.555 9.7969v-0.00196c-11.293 2.9004-18.645 5.4966-24.309 8.2109-5.5822 2.6756-9.6186 5.5379-14.258 8.9551l-1.7617 1.2988-1.7637-1.2988c-4.6392-3.4172-8.6754-6.2795-14.258-8.9551-5.6635-2.7143-13.014-5.3105-24.307-8.2109v0.00196c-9.7518-2.1934-19.895-5.4342-29.555-9.7969-16.022-7.236-30.794-17.582-40.439-31.396-9.7582-13.977-14.24-31.389-9.4785-52.561 1.4001-6.2249 3.5955-12.755 6.6855-19.598l0.046875-0.09375 0.017578-0.03515c2.1039-4.2578 3.9293-8.6712 5.4727-13.188 1.5486-4.5309 2.8085-9.1463 3.7773-13.793 4.9806-23.889 2.3954-48.874-8.1777-67.779l-1.1895-2.127 1.8555-1.584 40.066-34.232 1.4785-1.2637 1.7422 0.83203c23.363 11.137 46.358 16.532 68.998 16.447 22.616-0.0856 44.954-5.6492 67.025-16.436l1.752-0.85742zm-119.71 14.662v224.1c3.6716 1.1149 7.3324 2.0743 10.936 2.8848l0.08203 0.02344c8.318 2.1337 14.611 4.1256 19.709 6.127v-225.86c-10.187-1.3583-20.428-3.7753-30.727-7.2734zm99.9 0.15039c-10.171 3.4836-20.412 5.9013-30.725 7.2285v225.76c5.0995-2.0026 11.396-3.9958 19.719-6.1309l0.08203-0.02344c3.5994-0.80969 7.2563-1.7675 10.924-2.8809v-223.95zm-138.32 8.9375-17.238 14.729c10.305 19.876 12.725 45.391 7.6504 69.732-1.023 4.9071-2.3462 9.7586-3.9648 14.494-1.6165 4.7303-3.5342 9.3671-5.748 13.854-2.9325 6.4939-5.0031 12.642-6.3105 18.455-4.3494 19.336-0.29946 35.176 8.5449 47.844 4.567 6.5417 10.419 12.267 17.066 17.215v-196.32zm176.76 0.01367v196.3c6.6414-4.9455 12.488-10.668 17.051-17.205 8.8441-12.668 12.895-28.508 8.5449-47.844-1.3072-5.8129-3.378-11.961-6.3106-18.455-11.389-23.083-14.96-50.314-10.273-74.143 0.91624-4.6583 2.1489-9.194 3.7031-13.553 1.28-3.5887 2.781-7.0606 4.5059-10.385l-17.221-14.715z" fill="#fff"/>
 <path d="m263.72 193.45-215.89 83.721c-7.6514-18.871-4.2601-41.51 8.2677-65.694l212.77-82.587c-8.3905 19.169-10.266 41.595-5.144 64.56" fill="#fff"/>
 <path d="m264.79 196.22-215.89 83.721-2.6871 1.0419-1.1303-2.6647-2e-3 -5e-3 -0.02335-0.0349c-1.1251-2.7757-2.0266-5.6438-2.7091-8.5963-0.67903-2.9389-1.1345-5.9385-1.3714-8.9914-1.2063-15.54 3.1931-32.686 12.467-50.588l0.51943-1.0022 1.0567-0.41044 219.49-85.196-2.9169 6.5906-4e-3 8e-3 -5e-3 -2e-3c-1.1272 2.5772-2.1376 5.2319-3.0293 7.9568-0.8977 2.742-1.6632 5.5127-2.2947 8.3048-3.2901 14.538-3.2276 30.35 0.36287 46.447l0.55621 2.4943-2.389 0.92654zm-215.22 77.071 210.71-81.711c-3.2493-16.102-3.1403-31.913 0.16873-46.535 0.68463-3.0265 1.4969-5.9766 2.4349-8.8416 0.22738-0.69571 0.46291-1.3887 0.70708-2.0794l-205.36 79.711c-8.4136 16.553-12.398 32.278-11.301 46.413 0.21503 2.7724 0.624 5.4761 1.2313 8.1039 0.38542 1.668 0.85424 3.3149 1.4068 4.9403" fill="#231f20"/>
 <path d="m242.6 189.54 6.2385-2.4451v4.7392l-6.2385 2.4451zm-45.174 17.444 6.2382-2.4451v4.7392l-6.2382 2.4451zm-31.191-30.743 19.518-7.5058c17.811-5.474 19.581 26.356-0.36041 33.107l-6.7557 2.6888v14.491l-12.404 4.7834 2e-3 -47.565zm12.402 17.825c4.0025-1.8323 7.7524-2.5589 9.396-5.6063 0.8095-1.501 1.2557-3.5565 0.92016-5.5453-0.41771-2.4749-2.1598-3.7462-5.0748-2.909l-5.2414 2.1721zm33.827-35.682 19.518-7.5056c17.811-5.4742 19.581 26.356-0.36032 33.107l-6.7558 2.6887v14.491l-12.404 4.7833 2e-3 -47.565zm12.402 17.825c4.0026-1.8323 7.7524-2.5589 9.3961-5.6063 0.8097-1.501 1.2558-3.5565 0.92005-5.5453-0.4176-2.4748-2.1597-3.7462-5.0748-2.9089l-5.2414 2.172zm-87.942 52.213-12.441 4.5757-1.4046 7.485-11.923 4.5717 12.587-52.443 12.595-4.7359 13.983 42.092-11.968 4.5938zm-2.5947-8.846-3.9086-16.352-3.8836 19.217zm-48.092 28.556-12.441 4.5757-1.3288 7.3286-12.074 4.8062 13.007-52.76 11.906-4.4978 14.327 42.014-11.968 4.5156zm-2.5947-8.8461-3.9085-16.352-3.8836 19.217zm69.798-15.243 6.2383-2.4451v4.7392l-6.2383 2.4454zm-51.049 19.758 6.2382-2.4451v4.7392l-6.2382 2.4451z" fill="#231f20"/>
 <path d="m65.844 43.806h6.7939v6.4142h-22.154v-6.4142h7.1104v-13.693q-4.051 1.7934-6.3298 2.1099v-6.4775q6.1399-1.3293 8.3342-4.7684h6.2454zm25.003 0h6.7939v6.4142h-22.154v-6.4142h7.1104v-13.693q-4.051 1.7934-6.3298 2.1099v-6.4775q6.1399-1.3293 8.3342-4.7684h6.2454zm18.757-1.2871v7.7012h-8.0177v-7.7012zm14.516 8.1443q-5.2115 0-8.2498-4.0933-3.0383-4.1143-3.0383-10.803 0-6.8572 3.1016-10.824 3.1227-3.9666 8.3342-3.9666 5.4647 0 8.3764 4.2409 2.9117 4.2198 2.9117 10.803 0 6.7096-3.1438 10.676-3.1227 3.9667-8.292 3.9667zm0.0844-6.1188q1.8145 0 2.4264-2.2998 0.61188-2.3209 0.61188-6.3298 0-5.5069-0.82287-7.1948-0.80177-1.6879-2.1943-1.6879-1.6879 0-2.342 2.2365-0.63297 2.2154-0.63297 6.1188 0 5.2959 0.63297 7.237 0.65408 1.92 2.3209 1.92zm32.408-9.9799q4.6629 2.3631 4.6629 7.1104 0 4.3042-3.3548 6.6463-3.3337 2.342-8.7984 2.342t-8.3975-2.2154-2.9328-5.8023q0-4.5363 4.4941-6.5197-3.608-2.0044-3.608-6.2876 0-3.7768 2.9328-6.3087 2.9539-2.553 8.1654-2.553 4.6629 0 7.5957 2.1099 2.9539 2.1099 2.9539 5.5913 0 1.5824-0.67517 2.9539-0.65408 1.3504-3.0383 2.9328zm-5.3803-2.2154q1.7934-0.88616 1.7934-2.6585 0-1.3081-0.99167-2.1521-0.99166-0.86507-2.8062-0.86507-1.287 0-2.0255 0.61188-0.71738 0.61188-0.71738 1.498 0 1.6457 2.1099 2.4897zm-3.9456 6.6674q-2.0044 1.2238-2.0044 2.9961 0 1.3081 1.1182 2.1943 1.1182 0.88616 3.186 0.88616 1.6668 0 2.553-0.61188 0.88618-0.63297 0.88618-1.6246 0-1.6457-2.4686-2.5952zm24.876 3.5025v7.7012h-8.0177v-7.7012zm20.403 1.2871h6.794v6.4142h-22.154v-6.4142h7.1104v-13.693q-4.051 1.7934-6.3298 2.1099v-6.4775q6.1399-1.3293 8.3342-4.7684h6.2454zm9.1571-0.84397 7.3847-1.1816q0.46417 2.6585 2.764 2.6585 1.8145 0 2.764-1.6879 0.97057-1.6879 0.97057-4.6418 0-0.33758-0.0211-0.86506-1.8989 2.7851-5.6124 2.7851-3.9034 0-6.4564-2.5741t-2.553-6.5619q0-4.3675 2.9961-7.1315 3.0172-2.7851 8.081-2.7851 5.8234 0 8.7984 3.8611 2.975 3.8401 2.975 10.149 0 6.9416-3.1016 11.309-3.0805 4.3675-9.1992 4.3675-4.0088 0-6.6252-2.0466-2.5952-2.0677-3.1649-5.6546zm10.212-9.0516q1.287 0 2.2576-0.88616 0.97056-0.90727 0.97056-2.553 0-1.6668-0.88617-2.6374-0.88617-0.97057-2.2365-0.97057-1.266 0-2.1732 0.90727-0.88616 0.90726-0.88616 2.7218 0 1.6035 0.82287 2.5108 0.84396 0.90727 2.131 0.90727zm25.804 16.753q-5.2115 0-8.2498-4.0933-3.0383-4.1143-3.0383-10.803 0-6.8572 3.1016-10.824 3.1227-3.9666 8.3342-3.9666 5.4647 0 8.3764 4.2409 2.9117 4.2198 2.9117 10.803 0 6.7096-3.1438 10.676-3.1227 3.9667-8.292 3.9667zm0.0844-6.1188q1.8145 0 2.4264-2.2998 0.61188-2.3209 0.61188-6.3298 0-5.5069-0.82288-7.1948-0.80176-1.6879-2.1943-1.6879-1.6879 0-2.342 2.2365-0.63298 2.2154-0.63298 6.1188 0 5.2959 0.63298 7.237 0.65408 1.92 2.3209 1.92zm25.256 6.1188q-5.2115 0-8.2498-4.0933-3.0383-4.1143-3.0383-10.803 0-6.8572 3.1016-10.824 3.1227-3.9666 8.3342-3.9666 5.4647 0 8.3764 4.2409 2.9117 4.2198 2.9117 10.803 0 6.7096-3.1438 10.676-3.1227 3.9667-8.292 3.9667zm0.0844-6.1188q1.8145 0 2.4264-2.2998 0.61187-2.3209 0.61187-6.3298 0-5.5069-0.82287-7.1948-0.80177-1.6879-2.1943-1.6879-1.6879 0-2.342 2.2365-0.63297 2.2154-0.63297 6.1188 0 5.2959 0.63297 7.237 0.65408 1.92 2.3209 1.92z"/>
</svg>
