<?xml version="1.0" encoding="UTF-8" standalone="no"?>
<!-- Generator: Adobe Illustrator 19.0.0, SVG Export Plug-In . SVG Version: 6.00 Build 0)  -->

<svg
   xmlns:dc="http://purl.org/dc/elements/1.1/"
   xmlns:cc="http://creativecommons.org/ns#"
   xmlns:rdf="http://www.w3.org/1999/02/22-rdf-syntax-ns#"
   xmlns:svg="http://www.w3.org/2000/svg"
   xmlns="http://www.w3.org/2000/svg"
   xmlns:sodipodi="http://sodipodi.sourceforge.net/DTD/sodipodi-0.dtd"
   xmlns:inkscape="http://www.inkscape.org/namespaces/inkscape"
   version="1.1"
   id="Layer_1"
   x="0px"
   y="0px"
   viewBox="0 0 700 700"
   xml:space="preserve"
   sodipodi:docname="sao-bernardo-fc-logo.svg"
   width="700"
   height="700"
   inkscape:export-filename="G:\Users\suitedoalex\sites\sao-bernardo-fc-logo-0.png"
   inkscape:export-xdpi="561.73999"
   inkscape:export-ydpi="561.73999"
   inkscape:version="0.92.4 (5da689c313, 2019-01-14)"><metadata
   id="metadata43"><rdf:RDF><cc:Work
       rdf:about=""><dc:format>image/svg+xml</dc:format><dc:type
         rdf:resource="http://purl.org/dc/dcmitype/StillImage" /><dc:title></dc:title></cc:Work></rdf:RDF></metadata><defs
   id="defs41" /><sodipodi:namedview
   pagecolor="#ffffff"
   bordercolor="#666666"
   borderopacity="1"
   objecttolerance="10"
   gridtolerance="10"
   guidetolerance="10"
   inkscape:pageopacity="0"
   inkscape:pageshadow="2"
   inkscape:window-width="1600"
   inkscape:window-height="837"
   id="namedview39"
   showgrid="false"
   inkscape:zoom="0.42140707"
   inkscape:cx="481.69063"
   inkscape:cy="537.96649"
   inkscape:window-x="-8"
   inkscape:window-y="-8"
   inkscape:window-maximized="1"
   inkscape:current-layer="Layer_1" />
<style
   type="text/css"
   id="style2">
	.st0{fill:none;stroke:#000000;stroke-width:6.0001;stroke-miterlimit:2.6131;}
	.st1{fill-rule:evenodd;clip-rule:evenodd;fill:#FFDD00;}
	.st2{fill-rule:evenodd;clip-rule:evenodd;fill:#FFFFFF;}
	.st3{fill-rule:evenodd;clip-rule:evenodd;stroke:#000000;stroke-width:0.216;stroke-miterlimit:2.6131;}
	.st4{fill-rule:evenodd;clip-rule:evenodd;}
	.st5{fill-rule:evenodd;clip-rule:evenodd;fill:#FFFFFF;stroke:#000000;stroke-width:3.5136;stroke-miterlimit:2.6131;}
	.st6{fill:none;stroke:#000000;stroke-width:3.5136;stroke-miterlimit:2.6131;}
	.st7{fill-rule:evenodd;clip-rule:evenodd;fill:#6D6E71;stroke:#000000;stroke-width:1.8919;stroke-miterlimit:2.6131;}
	.st8{fill-rule:evenodd;clip-rule:evenodd;stroke:#000000;stroke-width:1.8919;stroke-miterlimit:2.6131;}
</style>

<g
   id="g36"
   transform="matrix(0.81542657,0,0,0.81542657,100.39582,25.339893)"
   inkscape:export-filename="G:\Users\suitedoalex\sites\sao-bernardo-fc-logo-4.png"
   inkscape:export-xdpi="83.384636"
   inkscape:export-ydpi="83.384636"><path
     class="st0"
     d="m 306.1,661.8 c 64,-65.5 120.8,-58.1 179.3,-97 33.3,-22.1 68.2,-49.8 67.9,-110.8 10.9,3.1 18.3,1 21.7,-18.4 -8.3,-11.7 -18.8,-30.2 -21.6,-57.4 -0.7,-6.5 -6.1,-11.9 -11.6,-15.6 C 528.4,353.7 507.2,372.4 499,385 477.9,301.1 487.4,236.1 524.9,188.4 506.4,168.6 488,148.8 469.5,129 H 306.1 142.7 c -18.5,19.8 -36.9,39.6 -55.4,59.4 37.5,47.7 47,112.7 25.9,196.6 -8.2,-12.6 -29.4,-31.3 -42.8,-22.4 -5.6,3.7 -10.9,9.1 -11.6,15.6 -2.9,27.2 -13.3,45.6 -21.6,57.4 3.4,19.4 10.8,21.5 21.7,18.4 -0.3,61 34.6,88.7 67.9,110.8 58.5,38.9 115.3,31.5 179.3,97 z"
     id="path4"
     inkscape:connector-curvature="0"
     style="fill:#1b261d;fill-opacity:1;stroke:#000000;stroke-width:25.50645256;stroke-miterlimit:2.61310005;stroke-dasharray:none" /><path
     class="st1"
     d="m 306.1,661.8 c 64,-65.5 120.8,-58.1 179.3,-97 33.3,-22.1 68.2,-49.8 67.9,-110.8 10.9,3.1 18.3,1 21.7,-18.4 -8.3,-11.7 -18.8,-30.2 -21.6,-57.4 -0.7,-6.5 -6.1,-11.9 -11.6,-15.6 C 528.4,353.7 507.2,372.4 499,385 477.9,301.1 487.4,236.1 524.9,188.4 506.4,168.6 488,148.8 469.5,129 H 306.1 142.7 c -18.5,19.8 -36.9,39.6 -55.4,59.4 37.5,47.7 47,112.7 25.9,196.6 -8.2,-12.6 -29.4,-31.3 -42.8,-22.4 -5.6,3.7 -10.9,9.1 -11.6,15.6 -2.9,27.2 -13.3,45.6 -21.6,57.4 3.4,19.4 10.8,21.5 21.7,18.4 -0.3,61 34.6,88.7 67.9,110.8 58.5,38.9 115.3,31.5 179.3,97 z"
     id="path6"
     inkscape:connector-curvature="0"
     style="clip-rule:evenodd;fill:#fcd403;fill-opacity:1;fill-rule:evenodd" /><path
     class="st0"
     d="m 306.1,558.6 c 20.7,-17.3 39.1,-28.2 62.6,-34.7 26.5,-7.3 58.3,-21.3 80.1,-36.6 11.2,-7.9 19,-15.2 24.7,-23.7 25.8,-38.7 12,-74.9 6,-114.9 -8.2,-54.8 -2.9,-113.1 29.9,-159.5 C 494.3,173.1 479.3,157 464.3,140.8 H 306.1 147.9 c -15,16.1 -30,32.3 -45.1,48.4 32.8,46.4 38.1,104.7 29.9,159.5 -5.9,40 -19.7,76.2 6,114.9 5.7,8.5 13.5,15.8 24.7,23.7 21.8,15.3 53.6,29.3 80.1,36.6 23.5,6.6 41.9,17.4 62.6,34.7 z"
     id="path8"
     inkscape:connector-curvature="0"
     style="fill:none;stroke:#000000;stroke-width:6.00010014;stroke-miterlimit:2.61310005" /><path
     class="st2"
     d="m 306.1,558.6 c 20.7,-17.3 39.1,-28.2 62.6,-34.7 26.5,-7.3 58.3,-21.3 80.1,-36.6 11.2,-7.9 19,-15.2 24.7,-23.7 25.8,-38.7 12,-74.9 6,-114.9 -8.2,-54.8 -2.9,-113.1 29.9,-159.5 C 494.3,173.1 479.3,157 464.3,140.8 H 306.1 147.9 c -15,16.1 -30,32.3 -45.1,48.4 32.8,46.4 38.1,104.7 29.9,159.5 -5.9,40 -19.7,76.2 6,114.9 5.7,8.5 13.5,15.8 24.7,23.7 21.8,15.3 53.6,29.3 80.1,36.6 23.5,6.6 41.9,17.4 62.6,34.7 z"
     id="path10"
     inkscape:connector-curvature="0"
     style="clip-rule:evenodd;fill:#000000;fill-rule:evenodd" /><path
     class="st3"
     d="m 310,181.6 c 82.9,0 150.6,67.6 150.6,150.6 0,83 -67.7,150.6 -150.6,150.6 -82.9,0 -150.6,-67.6 -150.6,-150.6 0,-83 67.6,-150.6 150.6,-150.6 z"
     id="path12"
     inkscape:connector-curvature="0"
     style="clip-rule:evenodd;fill-rule:evenodd;stroke:#000000;stroke-width:0.21600001;stroke-miterlimit:2.61310005" /><path
     class="st4"
     d="m 112.1,503.7 c -0.4,-1.8 -0.5,-3.4 -0.3,-4.7 0.2,-1.3 0.7,-2.5 1.5,-3.5 0.7,-1 1.8,-1.7 3.1,-2.3 1.3,-0.6 2.8,-0.9 4.3,-1 1.6,-0.1 3.2,0.2 4.7,0.7 1.5,0.5 2.7,1.2 3.7,2.2 1.1,1 1.7,2.2 1.9,3.4 0.2,1.3 -0.1,2.5 -0.8,3.6 l -4.5,-0.6 c 0.7,-1.4 1,-2.6 1,-3.6 0,-1 -0.4,-1.9 -1.2,-2.6 -1.1,-1.1 -2.5,-1.5 -4.1,-1.3 -1.6,0.2 -3,1 -4,2.3 -0.6,0.8 -1,1.6 -1.1,2.6 -0.1,0.9 0,2.4 0.4,4.4 l 0.4,2.4 c 0,0.1 0,0.1 0,0.2 0.7,3.7 0.4,6.4 -0.8,8 -0.9,1.1 -2.1,2.1 -3.5,2.8 -1.5,0.7 -3.1,1.1 -4.7,1.2 -2.3,0.1 -4.4,-0.2 -6.2,-0.9 -1.9,-0.7 -3.6,-1.8 -5.2,-3.3 -1.4,-1.4 -2.5,-2.8 -3.1,-4.3 -0.6,-1.5 -0.9,-3.1 -0.9,-5 0.8,-0.5 1.6,-1 2.5,-1.6 0.9,-0.5 1.8,-1.1 2.7,-1.7 l 0.7,0.5 c -1.2,1.8 -1.6,3.9 -1.3,6.1 0.3,2.3 1.2,4.1 2.8,5.7 1.7,1.6 3.7,2.4 6.1,2.4 2.4,0 4.2,-0.8 5.5,-2.5 0.7,-0.9 1.1,-1.9 1.3,-3.1 0.2,-1.2 0.1,-2.5 -0.2,-4.1 z m 10.9,22.5 c -0.6,0 -1.5,-0.1 -2.7,-0.1 -2.9,-0.1 -5,-0.2 -6.3,-0.3 l -1.3,-0.7 c -0.2,-0.7 -0.3,-1.4 -0.1,-2 0.1,-0.6 0.4,-1.3 1,-2.1 1.1,-1.7 2.7,-3.5 4.8,-5.4 2.1,-1.9 4,-3.2 5.7,-4.1 1,-0.5 2.5,-0.8 4.3,-0.8 1.8,0 3.8,0.3 5.9,0.9 l 0.4,0.3 c 1.1,0.9 2.1,1.8 2.9,2.8 0.8,0.9 1.5,2 2.1,3 l -2.6,0.8 -9.2,8.2 c -0.4,0.4 -0.8,0.7 -1.1,1 -0.3,0.3 -0.5,0.5 -0.6,0.7 -0.2,0.3 -0.3,0.5 -0.2,0.7 0,0.2 0.1,0.4 0.3,0.6 0.2,0.2 0.7,0.4 1.5,0.6 0.7,0.2 2.4,0.4 4.9,0.8 l -1,1.6 c -2.3,-0.2 -4.4,-0.3 -6.2,-0.5 -1.8,-0.2 -3.4,-0.4 -5,-0.6 -0.2,-0.2 -0.4,-0.4 -0.5,-0.6 -0.1,-0.2 -0.1,-0.5 -0.1,-0.8 0.1,-0.2 0.2,-0.4 0.3,-0.6 0.1,-0.2 0.2,-0.4 0.3,-0.6 0.2,-0.4 0.6,-0.8 0.9,-1.2 0.6,-0.5 1,-1 1.6,-1.6 z m 2,-2 c 0.6,-0.5 1.5,-1.3 2.7,-2.4 2.9,-2.5 5,-4.4 6.4,-5.5 -0.6,-0.8 -1.1,-1.5 -1.6,-1.9 -0.4,-0.5 -0.8,-0.9 -1.1,-1.1 -0.7,-0.6 -1.4,-0.9 -2,-0.9 -0.6,0 -1.5,0.4 -2.9,1.2 -1.4,0.8 -2.9,2 -4.5,3.5 -1.6,1.5 -2.8,2.9 -3.6,4.1 -0.4,0.5 -0.5,1 -0.5,1.5 0,0.4 0.2,0.8 0.5,1.1 0.5,0.4 2.1,0.6 4.7,0.6 0.8,-0.2 1.4,-0.2 1.9,-0.2 z m 9.6,-19.9 0.1,-0.9 2.5,-0.2 c 0.4,0 0.7,0 1.1,0.1 0.3,0.1 0.6,0.2 0.9,0.4 0.3,0.2 0.6,0.5 0.9,0.9 0.3,0.4 0.6,0.8 0.9,1.2 l 1,1.4 c 0.1,0.3 0.3,0.5 0.5,0.7 0.2,0.2 0.4,0.4 0.6,0.6 0.5,0.4 1.1,0.7 1.7,0.8 0.6,0.1 1.4,0.2 2.4,0 l -0.1,0.9 -2,0.4 c -0.9,0.2 -1.6,0.3 -2.2,0.2 -0.6,-0.1 -1.1,-0.3 -1.5,-0.7 -0.2,-0.2 -0.5,-0.4 -0.7,-0.7 -0.2,-0.3 -0.4,-0.6 -0.6,-0.9 l -1,-1.6 c -0.2,-0.4 -0.5,-0.8 -0.8,-1.2 -0.3,-0.4 -0.6,-0.7 -1,-1 -0.3,-0.3 -0.7,-0.4 -1.1,-0.6 -0.4,0.4 -1,0.3 -1.6,0.2 z m 12.4,20.8 c -1.5,-1.1 -3.6,-0.9 -6.2,0.6 -2.6,1.5 -4.8,3.8 -6.6,6.9 -0.8,1.3 -1.1,2.5 -1.1,3.6 0,1.1 0.5,1.9 1.3,2.5 0.7,0.5 1.6,0.8 2.6,0.8 1,0 2,-0.4 3,-1 1.4,-0.8 2.7,-1.9 4,-3.3 1.3,-1.3 2.4,-2.7 3.1,-4 0.8,-1.3 1.1,-2.5 1.1,-3.6 0.1,-1 -0.4,-1.9 -1.2,-2.5 z m -16.6,6.2 c 1.2,-2 2.7,-3.8 4.6,-5.4 1.9,-1.5 3.7,-2.6 5.6,-3.1 1.7,-0.4 3.5,-0.5 5.4,-0.3 1.9,0.3 3.4,0.8 4.5,1.5 1.2,0.9 1.9,2 2,3.4 0.1,1.4 -0.3,2.9 -1.3,4.6 -1.1,2 -2.6,3.7 -4.3,5.3 -1.7,1.5 -3.5,2.6 -5.3,3.3 -1.7,0.6 -3.6,0.8 -5.7,0.6 -2.1,-0.2 -3.7,-0.7 -4.8,-1.5 -1.2,-0.9 -1.9,-2.1 -2,-3.5 -0.2,-1.4 0.3,-3.1 1.3,-4.9 z m 29.7,23.7 c 1.1,0.7 2.3,1.5 3.6,2.5 1.3,0.9 2.2,1.5 2.5,1.7 2,1.1 4,1.2 5.9,0.4 2,-0.8 3.5,-2.3 4.4,-4.5 0.7,-1.5 0.8,-3 0.3,-4.4 -0.5,-1.4 -1.5,-2.5 -3,-3.3 -0.3,-0.2 -0.8,-0.4 -1.5,-0.6 -0.3,-0.1 -0.5,-0.2 -0.6,-0.2 l -1.6,2.2 c -1.5,1.9 -2.9,3.3 -4.3,4.2 -1.5,0.9 -3.4,1.6 -5.7,2 z m 12.6,-9.7 c 2.2,1.1 4.4,1.3 6.6,0.6 2.2,-0.7 3.7,-2.1 4.6,-4.2 0.6,-1.4 0.7,-2.6 0.2,-3.7 -0.5,-1.1 -1.5,-2 -3.1,-2.9 l -0.2,-0.1 z m -20.6,8.9 2.6,-1.4 1.5,0.3 c 2,0.4 3.5,0.3 4.7,-0.3 1.1,-0.6 2.7,-2.3 4.9,-5 l 11.5,-14.7 c -3.2,-1.4 -6,-1.8 -8.2,-1.2 -2.3,0.6 -4,2.3 -5.2,5 -0.2,0.5 -0.5,1.2 -0.7,1.9 -0.2,0.7 -0.4,1.5 -0.6,2.3 -0.5,0 -1.3,0 -2.3,-0.1 -1,-0.1 -1.8,-0.1 -2.3,-0.2 0.2,-1 0.4,-1.8 0.6,-2.4 0.2,-0.6 0.3,-1.1 0.5,-1.5 1.5,-3.3 4,-5.5 7.7,-6.5 3.7,-1 7.5,-0.6 11.7,1.3 l 4.4,0.2 -1.1,1.4 c 2.8,1.5 4.7,3.1 5.8,4.7 1.1,1.6 1.3,3.2 0.6,4.8 -0.7,1.6 -1.9,2.8 -3.5,3.6 -1.7,0.9 -3.8,1.3 -6.4,1.5 1.6,1.4 2.7,2.7 3.1,4 0.4,1.3 0.3,2.7 -0.4,4.2 -0.6,1.5 -1.6,2.7 -3,3.6 -1.3,1 -2.9,1.6 -4.7,2 -1.7,0.3 -3.5,0.3 -5.5,0 -1.9,-0.3 -3.6,-0.8 -5.1,-1.6 0,0 -0.3,-0.2 -0.9,-0.5 -0.5,-0.3 -1.1,-0.7 -1.7,-1 l -1.6,-0.9 c -0.2,-0.1 -0.4,-0.2 -0.8,-0.5 -1.2,-0.7 -2.2,-1.3 -2.9,-1.7 -0.5,-0.3 -1,-0.5 -1.4,-0.8 -0.3,-0.1 -0.8,-0.3 -1.3,-0.5 z m 42.4,15.8 -0.6,1.5 c -2.7,0.5 -5.1,0.7 -7.3,0.7 -2.2,-0.1 -3.9,-0.4 -5.1,-1 -1.4,-0.6 -2.2,-1.6 -2.6,-2.9 -0.4,-1.3 -0.3,-2.7 0.4,-4.4 0.8,-2 1.9,-4 3.4,-6 1.5,-1.9 3,-3.4 4.4,-4.3 1.7,-1.1 3.6,-1.8 5.7,-2.1 2.1,-0.3 3.7,-0.2 5,0.4 0.8,0.4 1.4,1 1.7,1.9 0.3,0.9 0.3,1.7 0,2.6 -1.1,2.8 -5.9,4.8 -14.6,6 l -0.9,0.1 c -0.1,0.2 -0.3,0.5 -0.4,0.7 -0.1,0.3 -0.2,0.6 -0.4,1 -0.5,1.2 -0.6,2.2 -0.3,3 0.3,0.8 0.9,1.4 1.9,1.9 0.8,0.4 2,0.6 3.6,0.8 1.6,0.2 3.6,0.2 6.1,0.1 z m -9.2,-9.6 c 0.7,0 1.7,-0.1 2.8,-0.3 0.2,0 0.3,-0.1 0.4,-0.1 l 1.7,-0.4 c 1.2,-0.3 2.2,-0.7 3,-1.3 0.8,-0.6 1.4,-1.3 1.7,-2.2 0.2,-0.6 0.3,-1.2 0.2,-1.7 -0.1,-0.5 -0.5,-0.8 -1,-1.1 -0.9,-0.4 -2.2,0 -3.9,1.3 -1.6,1.4 -3.2,3.3 -4.9,5.8 z m 21.8,2.2 c -1.3,2 -3.8,6 -7.5,12 l -1.8,2.9 c -0.9,0 -1.7,-0.1 -2.4,-0.1 -0.7,0 -1.3,-0.1 -1.8,-0.1 0.9,-1.5 2.1,-3.4 3.6,-5.8 1.5,-2.3 2.4,-3.8 2.9,-4.5 l 1.7,-2.8 c 0.6,-0.9 1,-1.6 1.3,-2 0.2,-0.4 0.4,-0.8 0.5,-1.2 0.1,-0.4 0.2,-0.7 0.1,-0.9 0,-0.2 -0.2,-0.3 -0.5,-0.4 -0.3,-0.1 -0.7,-0.2 -1.2,-0.2 -0.5,0 -1.4,0 -2.6,0.1 l 0.4,-1.6 c 1.3,-0.3 2.8,-0.5 4.3,-0.7 1.5,-0.2 3.1,-0.3 4.8,-0.3 l 0.6,0.7 c 0,0 0,0.1 -0.1,0.2 -0.1,0.4 -0.1,0.7 -0.2,0.8 l -0.1,0.4 c 0,0.1 -0.1,0.2 -0.1,0.3 0,0 0,0.1 -0.1,0.1 l -0.9,1.3 3.3,-1.1 c 0.7,-0.3 1.4,-0.4 2,-0.4 0.6,0 1.2,0.1 1.8,0.3 0.3,0.1 0.6,0.3 0.8,0.4 0.3,0.2 0.6,0.4 0.9,0.7 -0.6,0.9 -1.1,1.8 -1.6,2.4 -0.5,0.7 -0.9,1.3 -1.4,1.9 -0.7,-0.7 -1.3,-1.3 -1.7,-1.6 -0.5,-0.4 -0.9,-0.6 -1.4,-0.8 -0.4,-0.2 -0.9,-0.3 -1.5,-0.3 -0.5,0 -1.2,0.1 -2.1,0.3 z m 0.2,20 9.1,-15 c 0.2,-0.3 0.4,-0.7 0.5,-1 0.2,-0.3 0.3,-0.5 0.3,-0.6 0.1,-0.2 0.1,-0.5 0,-0.7 -0.1,-0.2 -0.2,-0.3 -0.4,-0.4 -0.4,-0.1 -0.9,-0.1 -1.6,-0.1 -0.2,0 -0.4,0 -0.5,0 l -1.9,0.1 0.4,-1.4 2.4,-0.6 c 1.5,-0.4 2.9,-0.6 4.3,-0.8 1.4,-0.1 2.2,-0.2 2.4,-0.1 0.2,0.1 0.4,0.2 0.5,0.4 0.1,0.2 0.1,0.4 0,0.7 0,0.1 -0.1,0.3 -0.3,0.6 -0.1,0.1 -0.1,0.2 -0.2,0.3 l -2.2,3.9 3.6,-0.9 c 3,-0.7 5,-1.2 6.1,-1.4 1.1,-0.2 1.8,-0.3 2.1,-0.2 0.3,0.1 0.6,0.3 0.7,0.6 0.1,0.3 0.1,0.6 0,1 -0.1,0.3 -0.4,0.9 -0.9,1.7 -0.2,0.3 -0.3,0.6 -0.4,0.7 l -4.1,6.8 c -0.7,1.2 -1.4,2.4 -1.9,3.5 -0.5,1.1 -0.9,1.9 -1,2.4 -0.1,0.4 -0.2,0.8 -0.1,1.2 0.1,0.3 0.2,0.5 0.4,0.6 0.2,0.1 0.7,0 1.6,-0.2 0.5,-0.1 1,-0.2 1.3,-0.3 l 3,-0.6 -0.5,1.5 c -1.8,0.6 -3.5,1.1 -5.2,1.6 -1.7,0.5 -3.4,0.9 -5,1.3 -0.3,-0.2 -0.5,-0.4 -0.7,-0.6 -0.2,-0.2 -0.3,-0.5 -0.4,-0.8 0,-0.2 0.1,-0.4 0.1,-0.7 0.1,-0.5 0.1,-0.9 0.2,-1.1 0.2,-0.5 0.3,-0.9 0.4,-1.2 0.1,-0.3 0.2,-0.5 0.3,-0.6 l 6.3,-11 c 0.1,-0.2 0.2,-0.4 0.4,-0.7 0.3,-0.5 0.5,-0.8 0.5,-1 0.1,-0.4 0.1,-0.6 0.1,-0.9 -0.1,-0.2 -0.2,-0.4 -0.4,-0.4 -0.2,-0.1 -1,0 -2.4,0.2 -1.3,0.2 -2.5,0.6 -3.6,1 l -1.8,0.7 -7.2,12 z m 31.3,5.5 c -0.6,0.2 -1.4,0.5 -2.5,1 -2.7,1 -4.7,1.8 -6,2.3 l -1.4,-0.2 c -0.4,-0.6 -0.7,-1.2 -0.8,-1.8 -0.1,-0.6 0,-1.4 0.2,-2.4 0.5,-2.1 1.4,-4.4 2.7,-7 1.3,-2.6 2.7,-4.6 4,-6 0.8,-0.9 2.1,-1.8 3.8,-2.5 1.7,-0.7 3.7,-1.2 5.8,-1.5 l 0.5,0.1 c 1.3,0.4 2.5,0.9 3.6,1.4 1.1,0.5 2.1,1.2 3,2 l -2.2,1.8 -5.9,11.3 c -0.3,0.5 -0.5,1 -0.7,1.3 -0.2,0.4 -0.3,0.7 -0.3,0.9 -0.1,0.3 -0.1,0.6 0,0.8 0.1,0.2 0.2,0.3 0.5,0.4 0.3,0.1 0.8,0.1 1.6,-0.1 0.7,-0.1 2.4,-0.6 4.9,-1.3 l -0.4,1.9 c -2.2,0.8 -4.2,1.5 -5.9,2 -1.7,0.6 -3.3,1 -4.9,1.4 -0.3,-0.1 -0.5,-0.2 -0.7,-0.4 -0.1,-0.1 -0.2,-0.4 -0.3,-0.7 0,-0.3 0.1,-0.5 0.1,-0.7 0,-0.2 0.1,-0.5 0.1,-0.7 0.1,-0.5 0.3,-1 0.5,-1.5 0.1,-0.3 0.4,-1 0.7,-1.8 z m 1.2,-2.6 c 0.4,-0.8 1,-1.9 1.8,-3.3 1.9,-3.5 3.3,-6.1 4.2,-7.7 -0.8,-0.5 -1.5,-0.9 -2.1,-1.2 -0.5,-0.3 -1,-0.5 -1.4,-0.6 -0.9,-0.3 -1.6,-0.3 -2.1,0 -0.5,0.2 -1.3,1 -2.3,2.2 -1,1.3 -2.1,3 -3.1,5.1 -1,2.1 -1.7,3.8 -2.1,5.2 -0.2,0.6 -0.2,1.2 0,1.6 0.1,0.4 0.4,0.7 0.8,0.8 0.6,0.2 2.1,-0.3 4.6,-1.4 0.7,-0.3 1.3,-0.6 1.7,-0.7 z m 19,-5.5 c -1.1,2.2 -3.1,6.5 -6.2,12.9 l -1.5,3.1 c -0.9,0.1 -1.7,0.2 -2.4,0.2 -0.7,0.1 -1.3,0.1 -1.8,0.1 0.8,-1.6 1.8,-3.7 3,-6.2 1.2,-2.5 2,-4.1 2.4,-4.9 l 1.4,-3 c 0.5,-1 0.8,-1.7 1,-2.2 0.2,-0.5 0.3,-0.9 0.4,-1.2 0.1,-0.4 0.1,-0.7 0,-0.9 -0.1,-0.2 -0.2,-0.3 -0.5,-0.4 -0.3,-0.1 -0.7,-0.1 -1.2,-0.1 -0.5,0 -1.4,0.2 -2.6,0.4 l 0.2,-1.6 c 1.3,-0.5 2.7,-0.9 4.2,-1.3 1.5,-0.4 3,-0.7 4.7,-0.9 l 0.7,0.6 c 0,0 0,0.1 0,0.2 0,0.4 0,0.7 -0.1,0.8 l -0.1,0.4 c 0,0.1 -0.1,0.2 -0.1,0.3 0,0 0,0.1 -0.1,0.1 l -0.8,1.5 3.1,-1.6 c 0.7,-0.4 1.3,-0.6 2,-0.7 0.6,-0.1 1.2,-0.1 1.8,0.1 0.3,0.1 0.6,0.2 0.9,0.3 0.3,0.1 0.6,0.3 1,0.6 -0.5,1 -0.9,1.9 -1.3,2.6 -0.4,0.7 -0.8,1.4 -1.2,2.1 -0.8,-0.6 -1.4,-1.1 -1.9,-1.4 -0.5,-0.3 -1,-0.5 -1.4,-0.6 -0.4,-0.1 -1,-0.1 -1.5,0 -0.5,0.2 -1.3,0.4 -2.1,0.7 z m 12.6,16.8 c -1.3,0.8 -2.7,1.5 -4.1,2.2 -1.4,0.7 -2.7,1.3 -4.1,1.9 l -1.2,-0.2 c -0.3,-0.8 -0.6,-1.5 -0.7,-2.1 -0.1,-0.6 -0.2,-1.2 -0.1,-1.8 0.1,-0.9 0.4,-2 0.8,-3.4 0.5,-1.4 1.1,-3.1 1.9,-5.2 0.5,-1.2 1,-2.3 1.5,-3.2 0.5,-1 1.1,-1.8 1.7,-2.4 0.6,-0.7 1.6,-1.4 3,-2.2 1.3,-0.8 2.9,-1.6 4.8,-2.5 0.2,0 0.4,0 0.6,0 0.2,0 0.4,0.1 0.7,0.1 0.3,0 0.6,0.1 0.8,0.2 0.3,0.1 0.6,0.1 0.9,0.2 0.3,-0.7 0.6,-1.7 1.1,-3.1 1.1,-3.3 2.4,-5.5 3.6,-6.5 2,-1.5 3.6,-2.6 5,-3.2 1.3,-0.6 2.5,-0.9 3.5,-0.7 0.3,0 0.5,0.1 0.9,0.2 0.3,0.1 0.8,0.3 1.4,0.5 l -0.4,0.5 c -0.8,1.1 -1.4,1.9 -1.8,2.4 l -3,-0.5 c -0.7,-0.1 -1.3,-0.1 -1.7,0.1 -0.4,0.2 -0.8,0.5 -1.1,1 -0.4,0.6 -0.8,1.5 -1.3,2.7 -0.5,1.2 -1.1,2.8 -1.8,4.8 l -5.7,16 c -0.3,0.8 -0.5,1.5 -0.7,2.1 -0.2,0.6 -0.3,1.1 -0.3,1.5 -0.1,0.5 0,0.9 0.1,1.3 0.1,0.3 0.3,0.5 0.6,0.5 0.4,0.1 1,0 1.8,-0.3 0.8,-0.2 2.2,-0.8 4.1,-1.6 l -0.3,1.8 c -1.5,0.7 -3.1,1.4 -4.8,2.1 -1.7,0.7 -3.5,1.4 -5.4,2 -0.2,0 -0.4,-0.1 -0.5,-0.2 -0.1,-0.1 -0.2,-0.3 -0.2,-0.6 0,-0.4 0,-0.8 0,-1.2 0,-0.3 0,-0.6 0.1,-0.9 0.1,-0.5 0.2,-1.2 0.5,-2.3 -0.3,0.2 -0.3,0.1 -0.2,0 z m 0.9,-2.8 c 0.9,-2.5 1.8,-4.8 2.4,-6.6 0.7,-1.9 1.3,-3.6 1.8,-5.3 -0.7,-0.4 -1.3,-0.7 -1.7,-0.9 -0.4,-0.2 -0.8,-0.3 -1.1,-0.4 -1,-0.2 -1.8,0.1 -2.6,0.6 -0.8,0.6 -1.6,1.7 -2.4,3.2 -0.9,1.6 -1.6,3.4 -2.2,5.2 -0.6,1.8 -1,3.4 -1.2,4.7 -0.1,0.7 0,1.2 0.1,1.6 0.2,0.4 0.4,0.7 0.8,0.7 0.4,0.1 1.1,-0.2 2.2,-0.7 1.1,-0.3 2.4,-1.1 3.9,-2.1 z m 20.4,-11 c -1.8,-0.2 -3.6,1.1 -5.2,3.7 -1.7,2.7 -2.6,5.9 -2.9,9.6 -0.1,1.6 0.1,2.8 0.5,3.7 0.5,0.9 1.2,1.4 2.2,1.5 0.9,0.1 1.7,-0.2 2.6,-0.7 0.9,-0.6 1.6,-1.4 2.3,-2.4 0.9,-1.4 1.6,-3.1 2.2,-5 0.6,-1.9 1,-3.6 1.1,-5.2 0.1,-1.6 -0.1,-2.8 -0.5,-3.7 -0.6,-0.9 -1.3,-1.4 -2.3,-1.5 z m -12,14.2 c 0.2,-2.4 0.8,-4.8 1.8,-7.2 1,-2.3 2.2,-4.2 3.6,-5.6 1.3,-1.3 2.8,-2.3 4.6,-3.1 1.8,-0.8 3.3,-1.1 4.6,-1 1.5,0.1 2.5,0.8 3.2,1.9 0.7,1.1 0.9,2.7 0.8,4.7 -0.2,2.3 -0.7,4.7 -1.6,6.9 -0.9,2.3 -2,4.2 -3.3,5.7 -1.3,1.5 -2.8,2.6 -4.8,3.6 -1.9,0.9 -3.6,1.3 -4.9,1.2 -1.5,-0.1 -2.6,-0.8 -3.2,-2.1 -0.7,-1.2 -1,-2.9 -0.8,-5 z m 28.5,-6.8 c -0.3,-1.2 -0.5,-2.2 -0.6,-2.9 -0.1,-0.7 -0.2,-1.4 -0.2,-1.9 -0.1,-2.2 0.2,-4.2 0.9,-6.1 0.7,-1.9 1.9,-3.5 3.4,-4.9 1.1,-1 2.3,-1.7 3.6,-2.2 1.3,-0.5 3.2,-0.8 5.7,-1 l 2.1,-0.2 4.9,-0.4 c 1.8,-0.1 3.1,-0.3 4,-0.5 0.9,-0.2 1.6,-0.5 2.3,-0.8 l 1.4,-0.8 c 0,0.5 -0.1,0.8 -0.2,1.2 -0.1,0.3 -0.1,0.5 -0.2,0.6 l -2.7,2.5 -1.5,0.1 c -0.8,0.1 -1.6,0.1 -2.6,0.1 -0.9,0 -2.2,0.1 -3.9,0.2 -0.1,0.4 -0.3,1.2 -0.5,2.6 -0.2,1.3 -0.5,3 -0.9,5.1 l -1,6.9 c 0.3,0 0.6,0.1 0.9,0.1 0.3,0 0.6,0 1.1,0 l 5.6,-0.2 -1.5,1.7 c -1.7,0.3 -3,0.6 -4,0.8 -1,0.2 -1.9,0.5 -2.6,0.7 l -0.6,3.6 v 0.1 c -0.8,4.8 -2.3,8.6 -4.4,11.4 -1.9,2.5 -3.5,4.2 -4.7,5 -1.2,0.8 -2.6,1.3 -4.2,1.4 -0.1,0 -0.2,0 -0.4,0 -0.2,0 -0.4,0 -0.4,0 l -2.8,0.1 c 0.2,-0.5 0.5,-1.2 0.9,-2 0.4,-0.9 0.7,-1.5 0.8,-1.8 l 3.2,-0.2 c 1.8,-0.1 3,-0.4 3.6,-0.7 0.6,-0.3 1.1,-0.8 1.5,-1.4 0.5,-1 1.1,-2.3 1.5,-4.1 0.5,-1.8 0.9,-4.2 1.4,-7.2 l 0.6,-3.8 h -1.6 c 0.3,-0.4 0.7,-1 1.2,-1.7 0.5,-0.7 0.8,-1.2 0.9,-1.4 l 2.5,-14.4 c -0.1,0 -0.2,0 -0.5,0 -1.1,0 -1.8,0 -2.3,0 -2.2,0.2 -3.9,1.1 -5.1,2.7 -1.2,1.6 -1.7,3.8 -1.5,6.4 0,0.7 0.2,1.4 0.3,2.3 0.2,0.8 0.4,1.8 0.8,2.9 -1.1,0.7 -2,1.2 -2.6,1.5 -0.6,-0.1 -1.1,0.2 -1.6,0.6 z m 34,5.4 c -2.4,2.4 -4.1,4 -5.1,5 -1.1,1 -2,1.8 -2.7,2.3 l -1.1,-0.2 c -0.5,-0.6 -0.8,-1.2 -1.1,-1.7 -0.2,-0.5 -0.4,-1 -0.5,-1.4 -0.1,-0.4 0,-1.4 0.2,-3.2 0.1,-0.9 0.2,-1.6 0.2,-2.1 l 0.7,-7.9 c 0,-0.5 0.1,-1 0.1,-1.5 0,-0.5 0,-0.9 0,-1.1 -0.1,-0.4 -0.1,-0.6 -0.2,-0.7 -0.1,-0.1 -0.3,-0.1 -0.5,-0.1 -0.5,0.1 -1.5,0.8 -3,2 h -0.1 l -0.3,-1.6 c 1.5,-1.5 3,-2.7 4.3,-3.8 1.3,-1.1 2.4,-1.9 3.2,-2.4 l 0.5,0.2 c 0.1,0.4 0.1,0.9 0.1,1.3 0,0.4 0,0.8 0,1.2 l -1.2,12.7 c 0,0.6 -0.1,1.2 -0.1,1.8 0,0.6 0,1.1 0.1,1.5 0.1,0.6 0.2,1.1 0.4,1.4 0.2,0.3 0.4,0.4 0.7,0.4 0.5,-0.1 2,-1.3 4.3,-3.6 0.6,-0.6 1,-1 1.4,-1.3 l 0.1,-1.6 c 0.2,-3.4 0.4,-5.8 0.6,-7 l 0.6,-6.2 3.9,-2.9 c -0.2,1.7 -0.4,3.6 -0.7,5.7 -0.3,2.1 -0.4,3.3 -0.4,3.6 l -0.3,3.1 c -0.2,2.4 -0.3,4 -0.3,4.9 0,0.9 0,1.6 0,2 0.1,0.5 0.2,0.8 0.4,1.1 0.2,0.3 0.4,0.4 0.6,0.4 0.3,0 0.8,-0.5 1.8,-1.3 0.3,-0.3 0.5,-0.4 0.6,-0.6 l 2.8,-2.3 v 1.9 c -1.7,1.8 -3.3,3.3 -4.7,4.5 -1.4,1.2 -2.6,2.3 -3.8,3.1 l -0.8,-0.6 c -0.1,-0.3 -0.1,-0.6 -0.2,-0.9 0,-0.3 -0.1,-0.6 -0.2,-1.1 -0.1,-0.4 -0.1,-0.8 -0.1,-1.4 -0.1,-0.3 -0.2,-0.9 -0.2,-1.6 z m 22.2,-4.5 c -1.2,1.3 -2.5,2.6 -3.8,3.8 -1.3,1.3 -2.7,2.5 -4.1,3.8 h -1.2 c -0.7,-0.7 -1.2,-1.4 -1.6,-2 -0.3,-0.6 -0.6,-1.2 -0.7,-1.9 -0.1,-0.5 -0.1,-1.4 -0.1,-2.5 0,-0.2 0,-0.3 0,-0.4 l 0.4,-11.9 -1.8,0.4 c -0.2,0 -0.6,0.1 -1.1,0.2 -0.5,0.1 -1.1,0.2 -1.8,0.3 l 1.3,-2.2 c 0.4,-0.1 0.8,-0.2 1.3,-0.4 0.5,-0.1 1.2,-0.3 2.2,-0.5 l 0.4,-8 c 0.5,-0.3 1,-0.7 1.6,-1.1 0.6,-0.4 1.3,-0.9 2,-1.4 -0.1,1.5 -0.2,3.4 -0.2,5.6 0,0.5 0,0.9 0,1.2 l -0.1,3 2.9,-0.7 c 0.4,-0.1 1.2,-0.3 2.5,-0.5 0.8,-0.1 1.3,-0.3 1.8,-0.4 l -1.7,2.4 c -0.2,0.1 -0.6,0.2 -1,0.3 -1,0.3 -1.6,0.4 -1.9,0.5 -0.5,0.1 -0.9,0.2 -1.4,0.3 -0.4,0.1 -0.8,0.2 -1.2,0.3 l -0.2,7.4 v 0.1 c -0.1,2 -0.1,3.3 0,4 0.2,0.9 0.5,1.5 1,2 0.5,0.5 1,0.6 1.5,0.5 0.4,-0.1 1,-0.5 1.9,-1.2 0.2,-0.2 0.4,-0.3 0.5,-0.4 l 2.6,-2.2 z"
     id="path14"
     inkscape:connector-curvature="0"
     style="clip-rule:evenodd;fill:#1a1a1a;fill-opacity:1;fill-rule:evenodd;stroke:#1a1a1a;stroke-width:1.63508999;stroke-miterlimit:4;stroke-dasharray:none;stroke-opacity:1" /><path
     class="st4"
     d="m 381.7,584.9 0.4,1.6 c -1.8,2.2 -3.6,4.1 -5.3,5.5 -1.7,1.4 -3.2,2.4 -4.5,2.7 -1.4,0.4 -2.6,0.3 -3.6,-0.5 -1,-0.7 -1.7,-2 -2.1,-3.7 -0.5,-2.1 -0.7,-4.5 -0.6,-7 0.1,-2.5 0.5,-4.7 1.1,-6.5 0.8,-2.1 1.9,-3.9 3.3,-5.6 1.4,-1.7 2.8,-2.7 4.1,-3.1 0.9,-0.3 1.7,-0.2 2.4,0.3 0.7,0.5 1.2,1.2 1.4,2.1 0.7,2.9 -2,7.8 -8.2,14.7 l -0.6,0.7 c 0,0.3 0.1,0.6 0.1,0.8 0.1,0.3 0.1,0.6 0.2,1 0.3,1.3 0.8,2.1 1.4,2.6 0.6,0.4 1.5,0.5 2.6,0.2 0.9,-0.3 1.9,-0.9 3.2,-1.8 1.2,-0.9 2.8,-2.2 4.7,-4 z m -12.5,-1.3 c 0.6,-0.5 1.3,-1.2 2.1,-2.2 0.1,-0.1 0.2,-0.3 0.2,-0.3 l 1.1,-1.5 c 0.8,-1 1.3,-2.1 1.7,-3.1 0.3,-1.1 0.4,-2 0.2,-2.9 -0.2,-0.7 -0.4,-1.1 -0.8,-1.4 -0.4,-0.3 -0.8,-0.3 -1.3,-0.2 -0.9,0.3 -1.7,1.5 -2.3,3.7 -0.7,2.2 -1,4.8 -0.9,7.9 z m 13.9,8 c -0.2,-3.3 -0.5,-6.4 -0.7,-9.3 -0.2,-2.9 -0.4,-5.4 -0.6,-7.6 l -0.4,-5.3 V 569 c -0.5,-5.9 -0.6,-9.5 -0.4,-10.7 0.3,-1.6 1.6,-4.3 4,-8.1 0.6,-0.9 1,-1.7 1.3,-2.2 0.4,-0.3 0.8,-0.5 1.2,-0.7 0.3,-0.2 0.6,-0.3 0.9,-0.4 0.3,-0.1 0.7,-0.2 1.1,-0.3 0.4,-0.1 0.9,-0.2 1.5,-0.2 -0.2,0.6 -0.3,1.3 -0.5,1.9 -0.2,0.7 -0.4,1.4 -0.6,2.1 -0.1,0 -0.3,0 -0.5,0.1 -0.9,0.2 -1.6,0.4 -1.9,0.5 -1.4,0.6 -2.4,1.6 -2.9,3 -0.5,1.5 -0.6,4.2 -0.2,8.3 l 0.5,7.3 c 0.3,-0.4 0.8,-1 1.3,-1.8 2.3,-3.2 4,-5 5.2,-5.5 1,-0.4 1.8,-0.3 2.5,0.3 0.7,0.6 1.3,1.6 1.8,3.1 0.8,2.7 1.2,5.5 1,8.6 -0.1,3.1 -0.8,5.7 -1.8,7.8 -0.1,0.2 -0.3,0.5 -0.6,0.9 -2.3,3.5 -4.3,5.6 -5.9,6.2 -0.5,0.2 -1,0.3 -1.5,0.4 -0.5,0.1 -1.2,0.1 -1.9,0 l -0.8,1.8 z m 2.9,-6.9 c 0.5,0.4 1.1,0.6 1.6,0.7 0.5,0.1 1.1,0 1.7,-0.3 1,-0.4 1.8,-1 2.4,-1.8 0.6,-0.8 1,-1.9 1.3,-3.2 0.1,-0.6 0.2,-1.2 0.2,-2.1 0,-0.8 0,-1.7 -0.1,-2.8 -0.1,-1.7 -0.2,-3.1 -0.4,-4.2 -0.1,-1 -0.3,-1.9 -0.5,-2.5 -0.2,-0.6 -0.5,-1.1 -1,-1.4 -0.5,-0.3 -1,-0.4 -1.5,-0.2 -0.4,0.2 -1.1,0.8 -1.9,1.8 -0.9,1 -1.8,2.3 -2.8,3.8 0.3,3.5 0.5,6.2 0.6,8.1 0.3,2 0.4,3.4 0.4,4.1 z m 18.7,-25.9 c -1.7,0.8 -2.7,2.8 -3.1,6 -0.4,3.2 0,6.6 1.3,10 0.5,1.4 1.2,2.4 2,3 0.8,0.6 1.7,0.7 2.6,0.2 0.8,-0.4 1.5,-1 2.1,-2 0.5,-0.9 0.9,-2.1 1,-3.3 0.2,-1.7 0.1,-3.6 -0.1,-5.5 -0.2,-2 -0.6,-3.7 -1.1,-5.2 -0.5,-1.4 -1.2,-2.5 -2,-3 -0.9,-0.6 -1.8,-0.6 -2.7,-0.2 z m -5,18.7 c -0.8,-2.3 -1.3,-4.7 -1.3,-7.3 -0.1,-2.6 0.2,-4.9 0.9,-6.8 0.6,-1.8 1.6,-3.5 2.9,-5.1 1.3,-1.6 2.5,-2.7 3.7,-3.2 1.4,-0.6 2.6,-0.6 3.6,0.1 1.1,0.7 1.9,1.9 2.6,3.8 0.8,2.2 1.3,4.5 1.4,7 0.1,2.5 -0.1,4.7 -0.6,6.8 -0.5,1.9 -1.5,3.8 -2.8,5.6 -1.3,1.8 -2.6,3 -3.9,3.5 -1.4,0.6 -2.6,0.5 -3.7,-0.2 -1.1,-0.8 -2,-2.2 -2.8,-4.2 z m 27.5,-12 c -0.9,1.5 -1.8,3 -2.8,4.5 -1,1.5 -2,3 -3.1,4.5 l -1.1,0.3 c -0.5,-0.4 -1,-0.8 -1.4,-1.2 -0.4,-0.5 -0.7,-0.9 -0.9,-1.5 -0.4,-1 -0.8,-3.5 -1.3,-7.5 l -0.1,-0.5 -2.2,-16.7 c 0,-0.1 0,-0.3 -0.1,-0.5 -0.4,-3 -0.4,-5.3 0.2,-6.9 0.2,-0.7 0.6,-1.6 1,-2.7 0.5,-1.1 1,-2.1 1.6,-3.2 0.3,-0.6 0.6,-1 1,-1.4 0.3,-0.3 0.8,-0.6 1.5,-1 0.2,-0.1 0.6,-0.3 1.2,-0.5 0.6,-0.2 1.2,-0.5 2.1,-0.9 l -0.9,4.2 c -0.6,0.2 -1.1,0.3 -1.5,0.4 -0.4,0.1 -0.7,0.2 -0.9,0.3 -1.9,1 -2.5,4.1 -1.8,9.5 0.2,1.2 0.3,2.1 0.4,2.8 l 2.2,16.8 c 0.1,0.6 0.2,1.2 0.4,1.9 0.2,0.7 0.3,1.2 0.5,1.6 0.2,0.5 0.5,0.9 0.8,1 0.3,0.2 0.7,0.2 1.1,0 0.1,-0.1 0.6,-0.7 1.5,-1.9 l 0.2,-0.3 2,-2.8 z m 27.9,-17.1 0.4,1.9 c -1.5,2.7 -3,4.9 -4.5,6.8 -1.5,1.8 -3.1,3.3 -4.8,4.3 -2.5,1.6 -4.9,2 -7.1,1.3 -2.2,-0.7 -4,-2.5 -5.4,-5.4 -1.4,-2.7 -2.2,-5.7 -2.6,-9 -0.4,-3.3 -0.3,-6.3 0.4,-9.2 0.6,-2.9 1.8,-5.7 3.6,-8.3 1.7,-2.6 3.7,-4.6 5.8,-5.9 1.2,-0.7 2.3,-1.2 3.5,-1.4 1.1,-0.2 2.3,-0.1 3.4,0.3 0.1,1.3 0.2,2.5 0.3,3.7 0.1,1.2 0.2,2.4 0.4,3.5 l -1,1.2 c -0.1,-0.2 -0.2,-0.4 -0.3,-0.6 -0.1,-0.2 -0.2,-0.5 -0.4,-0.9 -0.8,-1.7 -1.9,-2.7 -3.1,-3.1 -1.2,-0.4 -2.6,-0.2 -4,0.7 -1.3,0.8 -2.4,2 -3.3,3.7 -0.9,1.7 -1.5,3.5 -1.8,5.6 -0.3,2.4 -0.3,5 0.2,7.9 0.5,2.9 1.4,5.6 2.5,7.9 1.3,2.6 2.9,4.3 4.7,5 1.8,0.8 3.8,0.5 5.8,-0.7 1.1,-0.7 2.3,-1.8 3.5,-3.3 1,-1.5 2.4,-3.5 3.8,-6 z m 12.7,-8.4 c -0.7,1.6 -1.4,3.3 -2.2,4.9 -0.8,1.6 -1.6,3.3 -2.5,4.9 l -1.1,0.5 c -0.6,-0.3 -1.1,-0.6 -1.5,-1 -0.4,-0.4 -0.8,-0.8 -1.1,-1.3 -0.5,-0.9 -1.3,-3.3 -2.3,-7.2 l -0.1,-0.5 -4.2,-16.2 c 0,-0.1 -0.1,-0.3 -0.1,-0.5 -0.8,-2.9 -1,-5.2 -0.7,-6.9 0.1,-0.8 0.4,-1.7 0.7,-2.8 0.3,-1.1 0.7,-2.3 1.2,-3.5 0.2,-0.6 0.5,-1.1 0.8,-1.5 0.3,-0.4 0.7,-0.8 1.4,-1.2 0.2,-0.2 0.6,-0.4 1.1,-0.7 0.5,-0.3 1.2,-0.7 1.9,-1.2 l -0.4,4.3 c -0.6,0.3 -1.1,0.5 -1.5,0.6 -0.4,0.2 -0.7,0.3 -0.9,0.5 -1.8,1.2 -2,4.5 -0.6,9.7 0.3,1.2 0.5,2.1 0.7,2.7 l 4.3,16.3 c 0.1,0.6 0.3,1.2 0.6,1.8 0.2,0.6 0.5,1.1 0.7,1.5 0.3,0.5 0.6,0.8 0.9,0.9 0.4,0.1 0.7,0.1 1.1,-0.2 0.1,-0.1 0.5,-0.8 1.3,-2.1 l 0.2,-0.4 1.6,-3.1 z m 9.3,-7.4 c -1.2,3.3 -2.2,5.6 -2.7,7 -0.6,1.4 -1.1,2.5 -1.6,3.4 l -1.1,0.4 c -0.7,-0.3 -1.2,-0.7 -1.6,-1 -0.4,-0.3 -0.7,-0.7 -1,-1.1 -0.2,-0.3 -0.5,-1.3 -1,-3 -0.3,-0.8 -0.5,-1.5 -0.6,-2 l -2.3,-7.5 c -0.2,-0.5 -0.3,-0.9 -0.5,-1.4 -0.2,-0.4 -0.3,-0.8 -0.5,-1 -0.2,-0.3 -0.3,-0.5 -0.5,-0.5 -0.1,0 -0.3,0 -0.5,0.2 -0.4,0.3 -1.1,1.4 -2,3.2 l -0.1,0.1 -0.9,-1.3 c 0.9,-2 1.7,-3.9 2.5,-5.5 0.8,-1.6 1.5,-2.9 2,-3.7 h 0.5 c 0.2,0.4 0.4,0.7 0.6,1.1 0.2,0.4 0.3,0.7 0.4,1.1 l 3.7,12.1 c 0.2,0.6 0.4,1.1 0.6,1.7 0.2,0.5 0.4,1 0.7,1.3 0.3,0.5 0.6,0.9 0.9,1 0.3,0.2 0.5,0.2 0.7,0.1 0.4,-0.3 1.3,-2.1 2.6,-5.3 0.3,-0.8 0.6,-1.4 0.7,-1.8 l -0.5,-1.5 c -1.1,-3.2 -1.8,-5.4 -2.1,-6.6 l -1.8,-5.9 2.4,-4.4 c 0.5,1.6 1,3.5 1.5,5.5 0.6,2.1 0.9,3.2 1,3.4 l 1,3 c 0.7,2.2 1.2,3.8 1.6,4.6 0.3,0.9 0.6,1.5 0.8,1.8 0.2,0.4 0.5,0.7 0.8,0.8 0.3,0.2 0.5,0.2 0.7,0 0.2,-0.2 0.6,-0.8 1.1,-2 0.2,-0.4 0.3,-0.6 0.3,-0.8 l 1.7,-3.4 0.7,1.7 c -0.9,2.4 -1.7,4.5 -2.5,6.3 -0.8,1.8 -1.5,3.3 -2.3,4.6 l -1,-0.2 c -0.2,-0.2 -0.3,-0.5 -0.5,-0.7 -0.2,-0.2 -0.3,-0.5 -0.6,-0.9 -0.2,-0.3 -0.4,-0.7 -0.7,-1.2 -0.1,-0.6 -0.3,-1.1 -0.6,-1.7 z m 9.1,0.3 c -1.2,-3.1 -2.3,-5.9 -3.4,-8.5 -1,-2.7 -2,-5 -2.8,-6.9 l -2,-4.9 -0.2,-0.4 c -2.2,-5.5 -3.3,-8.8 -3.5,-10 -0.2,-1.6 0.3,-4.6 1.4,-9.1 0.3,-1.1 0.5,-2 0.6,-2.6 0.3,-0.5 0.6,-0.8 0.9,-1.1 0.3,-0.3 0.5,-0.5 0.7,-0.7 0.3,-0.2 0.6,-0.5 0.9,-0.7 0.4,-0.2 0.8,-0.5 1.4,-0.8 0,0.6 0.1,1.3 0.1,2 0,0.7 0,1.4 0.1,2.2 -0.1,0.1 -0.2,0.1 -0.4,0.3 -0.8,0.5 -1.4,0.9 -1.7,1.1 -1.2,1 -1.8,2.4 -1.8,3.9 0,1.6 0.7,4.2 2.2,8 l 2.6,6.8 c 0.2,-0.5 0.4,-1.2 0.7,-2.2 1.2,-3.9 2.3,-6.2 3.3,-7 0.8,-0.7 1.6,-0.9 2.5,-0.6 0.8,0.3 1.7,1 2.6,2.3 1.5,2.2 2.7,4.8 3.5,7.8 0.8,3 0.9,5.7 0.6,8.1 -0.1,0.2 -0.2,0.6 -0.3,1.1 -1.2,4.2 -2.4,6.8 -3.8,8 -0.4,0.3 -0.8,0.6 -1.3,0.9 -0.5,0.2 -1.1,0.5 -1.8,0.7 l -0.3,2 z m 0.8,-7.6 c 0.6,0.2 1.2,0.2 1.7,0.1 0.5,-0.1 1,-0.4 1.6,-0.9 0.8,-0.7 1.4,-1.6 1.8,-2.6 0.3,-1 0.4,-2.2 0.3,-3.5 -0.1,-0.6 -0.2,-1.2 -0.4,-2 -0.2,-0.8 -0.5,-1.6 -0.9,-2.6 -0.6,-1.6 -1.1,-2.9 -1.5,-3.8 -0.4,-0.9 -0.8,-1.6 -1.2,-2.2 -0.4,-0.5 -0.8,-0.9 -1.4,-1 -0.5,-0.1 -1,0 -1.4,0.4 -0.4,0.3 -0.8,1.1 -1.3,2.4 -0.5,1.3 -1,2.8 -1.5,4.6 1.3,3.2 2.2,5.7 2.9,7.4 0.5,1.8 1,3 1.3,3.7 z m 23.5,-23.2 0.9,1.3 c -0.8,2.9 -1.7,5.4 -2.8,7.5 -1,2.1 -2,3.7 -3.1,4.6 -1.1,1.1 -2.3,1.5 -3.5,1.3 -1.2,-0.2 -2.3,-1 -3.3,-2.4 -1.3,-1.7 -2.3,-3.7 -3.2,-6.1 -0.9,-2.4 -1.4,-4.5 -1.4,-6.4 -0.1,-2.2 0.2,-4.4 0.9,-6.6 0.7,-2.2 1.5,-3.8 2.6,-4.7 0.7,-0.7 1.5,-1 2.3,-0.9 0.8,0.1 1.5,0.5 2.1,1.2 1.7,2.3 1.1,8.1 -1.9,17.2 l -0.3,0.9 c 0.1,0.2 0.3,0.5 0.4,0.7 0.2,0.2 0.3,0.5 0.6,0.8 0.8,1 1.5,1.6 2.3,1.7 0.7,0.1 1.5,-0.2 2.4,-1 0.7,-0.6 1.4,-1.7 2.2,-3.2 0.9,-1.4 1.8,-3.4 2.8,-5.9 z m -11.8,4.7 c 0.4,-0.7 0.7,-1.7 1,-3 0,-0.2 0.1,-0.3 0.1,-0.4 l 0.5,-1.9 c 0.3,-1.3 0.4,-2.5 0.3,-3.6 -0.1,-1.1 -0.4,-2 -1,-2.7 -0.4,-0.5 -0.8,-0.8 -1.3,-0.9 -0.4,-0.1 -0.9,0.1 -1.3,0.5 -0.7,0.7 -1,2.2 -0.7,4.5 0.4,2.3 1.2,4.8 2.4,7.5 z"
     id="path16"
     inkscape:connector-curvature="0"
     style="clip-rule:evenodd;fill:#1a1a1a;fill-opacity:1;fill-rule:evenodd;stroke:#1a1a1a;stroke-width:1.63508999;stroke-miterlimit:4;stroke-dasharray:none;stroke-opacity:1" /><path
     class="st6"
     d="m 215.5,344.8 30.7,-6.2 m 24.3,57.2 3.7,-29.9 m -27.3,-91 15.1,26.2 m 62.9,-19.8 -21.2,23.8 m 34.2,48.4 -26.7,-10.5 m -101.1,-68.7 -18.5,40.3 m 12.7,69.2 30.9,29.3 m 66.8,4.8 41.3,-27.3 m 26.2,-62.9 -5.5,-39.9 m -53.1,-42.1 -45.7,-4.5"
     id="path20"
     inkscape:connector-curvature="0"
     style="fill:#6d6e71;fill-opacity:1;stroke:#6d6e71;stroke-width:1.58592629;stroke-miterlimit:2.61310005;stroke-dasharray:none" /><polygon
     class="st7"
     points="273.8,365.8 244.9,338.5 261.7,300 303.3,305 311.5,343.4 "
     id="polygon22"
     style="clip-rule:evenodd;fill:#6d6e71;fill-rule:evenodd;stroke:#6d6e71;stroke-width:1.89189994;stroke-miterlimit:2.61310005" /><polygon
     class="st7"
     points="181.7,360.3 180,354.1 179.2,348.3 178.5,342.8 178.3,336.6 178.2,330.5 178,323.1 191.6,314.3 216,344.5 204.1,382.9 187.4,375.1 184.2,367.3 "
     id="polygon24"
     style="clip-rule:evenodd;fill:#6d6e71;fill-rule:evenodd;stroke:#6d6e71;stroke-width:1.89189994;stroke-miterlimit:2.61310005" /><polygon
     class="st8"
     points="376.7,369.4 374,375 371.1,380.8 367.5,386.9 342.9,390.8 336.5,353.9 369.4,328.1 382.5,343.3 382.1,347.9 381.3,353 380.3,358.3 378.7,363.6 "
     id="polygon26"
     style="clip-rule:evenodd;fill-rule:evenodd;stroke:#000000;stroke-width:1.89189994;stroke-miterlimit:2.61310005" /><polygon
     class="st7"
     points="259.6,433 254.5,431.8 249.4,430.5 244.3,428.7 234.5,412.8 270.1,395.1 302.4,418 289.2,435.2 282.9,435.1 276.5,434.8 270.7,434.4 265.1,433.9 "
     id="polygon28"
     style="clip-rule:evenodd;fill:#6d6e71;fill-rule:evenodd;stroke:#6d6e71;stroke-width:1.89189994;stroke-miterlimit:2.61310005"
     transform="matrix(1,0,0,0.95531406,0,17.655414)" /><polygon
     class="st7"
     points="331.4,243.9 337.4,247.3 342.7,251.1 347.7,255.4 352.2,260 356.4,264.4 360.4,269.3 364.5,274.1 364.1,288.1 323.5,282.1 310.3,245.8 325,241 "
     id="polygon32"
     style="clip-rule:evenodd;fill:#6d6e71;fill-rule:evenodd;stroke:#6d6e71;stroke-width:1.89189994;stroke-miterlimit:2.61310005" /><path
     class="st1"
     d="m 314.8,227.1 c 0.7,0.3 0.1,-2.8 3.6,-3.4 3.5,-0.6 6.1,-4 6.1,-4 0,0 5,-3.1 7.5,-3 2.5,0.1 5.5,-2.5 5.5,-2.5 0,0 -0.1,-2.3 2.9,-1.2 3,1.1 -0.7,1.4 3.4,2.4 4.1,1 4.2,0.7 6.8,2.6 2.7,1.9 6.9,9.5 6.9,9.5 l 1.6,3 -0.5,13.1 8.8,-0.2 6.5,13.2 c 0,0 6.9,-0.6 10,3.3 3.1,3.9 1.7,3.2 0.6,4.3 -1.1,1.1 -2.9,0.5 -3.3,3.2 -0.4,2.7 1.7,1.6 2.6,1.5 0.9,-0.1 0.9,2.8 0.9,2.8 0,0 0.2,4.4 -0.4,6.4 -0.6,2.1 -1.7,9.6 -1.7,9.6 0,0 1.5,2 -1.6,2.2 -3.1,0.2 -3.8,-0.2 -4.2,1.7 -0.4,1.9 1.6,1.9 3.3,2 1.7,0.1 7.7,-1 9.1,-2.5 1.4,-1.5 5.3,-3.3 10.6,1.1 5.2,4.4 2.3,7.3 8.3,11.4 6,4.1 7.1,6.6 8.4,9.1 1.3,2.5 9.1,5 11.3,7.9 2.2,3 5.1,7.7 10.4,10.8 5.2,3.1 5.2,8.3 5.2,8.3 0,0 8.2,0.4 10.2,1 2,0.6 4.1,4.4 4.1,4.4 0,0 0,1.2 -1.4,1 -1.4,-0.2 -0.9,1.4 -4.9,2.4 -4,1 -6.6,-0.2 -12.1,2.7 -5.4,2.9 -3.1,3.5 -3.1,3.5 0,0 5.3,-1.1 4.4,1.8 -1,2.9 -2.6,2.2 -2.6,2.2 0,0 -2.8,3.2 1.3,3.4 4.1,0.2 1,3.1 1,3.1 0,0 -11.9,6.3 -15.1,12.8 -3.3,6.4 -1.8,0.3 -1.8,0.3 0,0 -2.1,-2.1 -3.3,0.9 -1.2,3 -0.4,5.4 -4.8,8.5 -4.4,3.2 -7.1,3.1 -7,3.9 0.1,0.8 -0.2,2.6 -1,3.3 -0.8,0.7 -4.6,3.2 -4.6,3.2 0,0 -0.9,11.3 -21.2,11.9 -3.5,4.7 0.1,6.4 -7.8,8.9 -1.1,3.6 2.8,3.6 -7.2,6.5 -3.7,6 -9.2,16.2 -19.6,17.7 -2.1,9.4 -7.4,5.7 -7.4,5.7 0,0 -3.6,7.3 -13.3,4.8 -5.1,0.4 -5,2.8 -5.9,3.3 -0.9,0.5 -5,0.5 -3,-2 2.7,-1.6 6.5,-3.5 2.1,-8.7 3.8,-8.8 -2.5,-13.1 -2.5,-13.1 2.8,-0.2 6.5,-15.4 3,-24.2 -0.5,-1.3 -1.7,-1.3 -2.5,-2.3 0.1,-2.6 -0.1,-5.6 -0.7,-9.8 -0.7,-4.7 0,-11 -2.8,-11.9 0,0 -21.9,-22.2 -5.3,-37.4 3.7,-3.4 2.2,-7 2.2,-7 0,0 -2.8,-11.9 0.5,-15.2 3.3,-3.3 -19.2,-27.7 -19.2,-27.7 v -8 l -4,-7.7 c 0,0 -1.2,-3.8 4,-2.7 5.1,1.1 18.5,6.1 18.5,6.1 0,0 5.2,1.6 7.8,-1.3 2.6,-2.9 4.5,-10.1 4.5,-10.1 0,0 0.9,-4 2.6,-5.5 1.7,-1.5 6.8,-9.6 6.8,-9.6 0,0 0.6,-4.6 3,-5.8 2.4,-1.2 4.5,-4.2 4.5,-4.2 l 0.1,-11.5 c 0,0 -1.1,-2.7 -3.5,-0.3 -2.4,2.4 -1.7,1.9 -1.7,1.9 0,0 -3.6,1.2 -4.1,-2 -0.5,-3.2 -3.3,-1.9 -3.3,-1.9 0,0 1.9,-9.6 -5.1,-4.9 l -1.8,1.8 z"
     id="path34"
     inkscape:connector-curvature="0"
     style="clip-rule:evenodd;fill:#ffdd00;fill-rule:evenodd" /><ellipse
     style="opacity:1;fill:#ffffff;fill-opacity:1;fill-rule:evenodd;stroke:#6d6e71;stroke-width:1.56559324;stroke-linecap:round;stroke-linejoin:round;stroke-miterlimit:2.61310005;stroke-dasharray:none;stroke-opacity:1;paint-order:stroke markers fill"
     id="path924"
     cx="280.6788"
     cy="332.53494"
     rx="103.49312"
     ry="101.42429" /><path
     class="st6"
     d="m 215.5,344.79999 33.87537,-7.61128 m 21.12463,58.61128 3.7,-29.9 m -29.41692,-95.58665 17.45213,33.13878 M 324.9,281.29999 l -21.2,23.8 m 34.20001,48.4 -26.70001,-10.5 m -101.1,-68.7 -18.91162,40.3588 M 204.3,383.8 235.2,413.09998 M 302,417.9 343.30001,390.59999 m 26.19999,-62.9 -5.49999,-39.9 m -53.10001,-42.1 -46.36528,-3.70998"
     id="path20-6"
     inkscape:connector-curvature="0"
     style="fill:#6d6e71;fill-opacity:1;stroke:#6d6e71;stroke-width:1.58592629;stroke-miterlimit:2.61310005;stroke-dasharray:none"
     sodipodi:nodetypes="cccccccccccccccccccc" /><polygon
     class="st7"
     points="261.7,300 303.3,305 311.5,343.4 273.8,365.8 244.9,338.5 "
     id="polygon22-8"
     style="clip-rule:evenodd;fill:#6d6e70;fill-opacity:1;fill-rule:evenodd;stroke:#6d6e71;stroke-width:1.89189994;stroke-miterlimit:2.61310005"
     transform="matrix(1.1278484,0,0,0.99796279,-34.604892,0.84520142)" /><polygon
     class="st7"
     points="178.2,330.5 178,323.1 191.6,314.3 216,344.5 204.1,382.9 187.4,375.1 184.2,367.3 181.7,360.3 180,354.1 179.2,348.3 178.5,342.8 178.3,336.6 "
     id="polygon24-7"
     style="clip-rule:evenodd;fill:#6d6e71;fill-rule:evenodd;stroke:#6d6e71;stroke-width:1.89189994;stroke-miterlimit:2.61310005" /><polygon
     class="st8"
     points="336.5,353.9 369.4,328.1 382.5,343.3 382.1,347.9 381.3,353 380.3,358.3 378.7,363.6 376.7,369.4 374,375 371.1,380.8 367.5,386.9 342.9,390.8 "
     id="polygon26-7"
     style="clip-rule:evenodd;fill-rule:evenodd;stroke:#000000;stroke-width:1.89189994;stroke-miterlimit:2.61310005" /><polygon
     class="st7"
     points="270.1,395.1 302.4,418 289.2,435.2 282.9,435.1 276.5,434.8 270.7,434.4 265.1,433.9 259.6,433 254.5,431.8 249.4,430.5 244.3,428.7 234.5,412.8 "
     id="polygon28-9"
     style="clip-rule:evenodd;fill:#6d6e71;fill-rule:evenodd;stroke:#6d6e71;stroke-width:1.89189994;stroke-miterlimit:2.61310005"
     transform="matrix(1,0,0,0.95531405,0,17.6554)" /><polygon
     class="st7"
     points="265.7,240.9 247.5,274.8 210.2,273.9 210.6,258.4 214.8,254.4 219.8,250.6 224.9,247 230.3,243.9 236.2,241.1 241.8,238.5 247.8,236.3 253.5,233.9 "
     id="polygon30-0"
     style="clip-rule:evenodd;fill:#6d6e71;fill-opacity:1;fill-rule:evenodd;stroke:#6d6e71;stroke-width:1.89189994;stroke-linecap:butt;stroke-miterlimit:2.61310005;paint-order:stroke markers fill"
     transform="matrix(1.0006006,0,0,0.96819923,-0.74299297,8.8523158)" /><polygon
     class="st7"
     points="356.4,264.4 360.4,269.3 364.5,274.1 364.1,288.1 323.5,282.1 310.3,245.8 325,241 331.4,243.9 337.4,247.3 342.7,251.1 347.7,255.4 352.2,260 "
     id="polygon32-4"
     style="clip-rule:evenodd;fill:#6d6e71;fill-rule:evenodd;stroke:#6d6e71;stroke-width:1.89189994;stroke-miterlimit:2.61310005" /><path
     class="st1"
     d="m 314.8,227.1 c 0.7,0.3 0.10001,-2.8 3.6,-3.40001 3.5,-0.6 6.1,-4 6.1,-4 0,0 5,-3.1 7.5,-3 2.5,0.1 5.50001,-2.5 5.50001,-2.5 0,0 -0.10007,-2.3 2.89999,-1.2 3,1.1 -0.7,1.4 3.4,2.4 4.1,1 4.2,0.7 6.80001,2.6 C 353.3,219.89999 357.5,227.5 357.5,227.5 l 1.6,2.99999 -0.49999,13.1 L 367.4,243.4 l 6.5,13.2 c 0,0 6.9,-0.6 10.00001,3.29999 3.09999,3.9 1.7,3.20001 0.6,4.30001 -1.10001,1.1 -2.90001,0.5 -3.30001,3.2 -0.4,2.7 1.7,1.59999 2.6,1.49999 0.90001,-0.1 0.90001,2.8 0.90001,2.8 0,0 0.19999,4.40001 -0.4,6.40001 -0.6,2.1 -1.7,9.59999 -1.7,9.59999 0,0 1.5,2 -1.60001,2.2 -3.1,0.20001 -3.79999,-0.2 -4.2,1.7 -0.4,1.9 1.6,1.9 3.3,2.00001 1.7,0.1 7.70001,-1.00001 9.1,-2.5 1.40001,-1.50001 5.3,-3.30001 10.6,1.1 5.20001,4.4 2.3,7.29999 8.3,11.39999 6.00001,4.10001 7.10001,6.60001 8.40001,9.10001 1.3,2.5 9.09999,4.99999 11.29999,7.9 2.2,3 5.10001,7.69999 10.4,10.8 5.2,3.1 5.2,8.3 5.2,8.3 0,0 8.2,0.39999 10.20001,1 2,0.6 4.1,4.4 4.1,4.4 0,0 0,1.19999 -1.40001,0.99999 -1.39999,-0.19999 -0.89999,1.40001 -4.89998,2.4 C 447.40001,349.5 444.8,348.3 439.3,351.19999 433.9,354.1 436.2,354.7 436.2,354.7 c 0,0 5.30001,-1.1 4.4,1.8 -0.99999,2.89999 -2.6,2.2 -2.6,2.2 0,0 -2.8,3.19999 1.3,3.39999 4.1,0.20001 1,3.10001 1,3.10001 0,0 -11.9,6.3 -15.1,12.8 -3.29999,6.39999 -1.79999,0.29999 -1.79999,0.29999 0,0 -2.10001,-2.1 -3.3,0.9 -1.20001,3 -0.4,5.4 -4.80001,8.50001 -4.39999,3.2 -7.1,3.09999 -6.99999,3.9 0.10007,0.8 -0.20001,2.6 -1.00001,3.29999 -0.79999,0.7 -4.6,3.20001 -4.6,3.20001 0,0 -0.89999,11.29999 -21.19999,11.89999 -3.50001,4.70001 0.10007,6.40001 -7.8,8.9 -1.10001,3.60001 2.8,3.60001 -7.20001,6.5 -3.7,6 -9.19999,16.19999 -19.6,17.7 -2.09999,9.4 -7.4,5.7 -7.4,5.7 0,0 -3.6,7.30001 -13.3,4.8 -5.1,0.4 -5,2.8 -5.9,3.3 -0.9,0.50001 -5,0.50001 -3,-2 2.7,-1.59999 6.5,-3.5 2.1,-8.69999 3.8,-8.80001 -2.5,-13.10001 -2.5,-13.10001 2.8,-0.2 6.5,-15.39999 3,-24.19999 -0.5,-1.3 -1.7,-1.3 -2.5,-2.30001 0.10001,-2.6 -0.1,-5.6 -0.7,-9.79999 -0.7,-4.70001 0,-11 -2.8,-11.9 0,0 -21.9,-22.20001 -5.3,-37.4 3.7,-3.40001 2.2,-7 2.2,-7 0,0 -2.8,-11.90001 0.5,-15.20001 3.3,-3.29999 -19.2,-27.7 -19.2,-27.7 v -8 l -4,-7.69999 c 0,0 -1.2,-3.8 4,-2.7 5.1,1.1 18.5,6.09999 18.5,6.09999 0,0 5.2,1.6 7.8,-1.29999 2.6,-2.9 4.5,-10.10001 4.5,-10.10001 0,0 0.9,-3.99999 2.6,-5.5 1.7,-1.49999 6.8,-9.59999 6.8,-9.59999 0,0 0.6,-4.60001 3,-5.8 2.40001,-1.20001 4.5,-4.20001 4.5,-4.20001 l 0.10007,-11.5 c 0,0 -1.1,-2.7 -3.5,-0.29999 -2.4,2.4 -1.7,1.9 -1.7,1.9 0,0 -3.6,1.19999 -4.1,-2 -0.5,-3.2 -3.3,-1.9 -3.3,-1.9 0,0 1.9,-9.6 -5.1,-4.9 l -1.8,1.79999 z"
     id="path34-3"
     inkscape:connector-curvature="0"
     style="clip-rule:evenodd;fill:#fcd403;fill-opacity:1;fill-rule:evenodd;stroke-width:1" /><path
     style="fill:#6d6e71;fill-opacity:1;stroke:#6d6e71;stroke-width:1.49467504px;stroke-linecap:butt;stroke-linejoin:miter;stroke-opacity:1"
     d="m 177.67456,327.17032 3.93204,3.75399 c 0,0 -2.47572,8.30941 -2.54854,8.64684 -0.0728,0.33745 -1.41992,0.67488 -1.41992,0.67488 0,0 0.10929,-2.02463 0.0728,-2.99475 -0.0364,-0.97015 -0.0364,-10.08096 -0.0364,-10.08096 z"
     id="path1057"
     inkscape:connector-curvature="0" /><path
     style="fill:#6d6e71;fill-opacity:1;stroke:#6d6e71;stroke-width:1.58592629px;stroke-linecap:butt;stroke-linejoin:miter;stroke-opacity:1"
     d="m 251.15685,236.82788 -2.5364,1.99583 c 0,0 -12.39089,6.77757 -13.1809,6.98547 -0.79003,0.20791 -3.9917,-0.4158 -3.9917,-0.4158 0,0 -0.0832,-1.4553 0.24948,-1.74637 0.33264,-0.29106 16.63207,-7.15178 16.63207,-7.15178 1.45529,-2e-5 2.82745,0.33265 2.82745,0.33265 z"
     id="path1059"
     inkscape:connector-curvature="0"
     sodipodi:nodetypes="ccccccc" /></g></svg>