<?xml version="1.0" encoding="UTF-8" standalone="no"?>
<!-- Created with Inkscape (http://www.inkscape.org/) -->

<svg
   width="91.288918mm"
   height="127.00005mm"
   viewBox="0 0 91.288918 127.00005"
   version="1.1"
   id="svg1"
   inkscape:version="1.4.2 (f4327f4, 2025-05-13)"
   sodipodi:docname="Campeonato Brasileiro Série B logo (2025).svg"
   xmlns:inkscape="http://www.inkscape.org/namespaces/inkscape"
   xmlns:sodipodi="http://sodipodi.sourceforge.net/DTD/sodipodi-0.dtd"
   xmlns="http://www.w3.org/2000/svg"
   xmlns:svg="http://www.w3.org/2000/svg">
  <sodipodi:namedview
     id="namedview1"
     pagecolor="#ffffff"
     bordercolor="#000000"
     borderopacity="0.25"
     inkscape:showpageshadow="2"
     inkscape:pageopacity="0.0"
     inkscape:pagecheckerboard="0"
     inkscape:deskcolor="#d1d1d1"
     inkscape:document-units="mm"
     inkscape:zoom="0.6236289"
     inkscape:cx="-17.638695"
     inkscape:cy="167.5676"
     inkscape:window-width="1366"
     inkscape:window-height="697"
     inkscape:window-x="-8"
     inkscape:window-y="-8"
     inkscape:window-maximized="1"
     inkscape:current-layer="layer1"
     showgrid="false" />
  <defs
     id="defs1" />
  <g
     inkscape:label="Layer 1"
     inkscape:groupmode="layer"
     id="layer1"
     transform="translate(-241.3,-157.42709)">
    <path
       class="cls-3"
       d="m 328.41167,205.17926 c 0,22.86386 -18.60334,41.46721 -41.46721,41.46721 -22.86386,0 -41.46721,-18.60335 -41.46721,-41.46721 0,-14.49722 7.47846,-27.28225 18.78029,-34.69652 l -5.11228,-13.05565 h 55.5984 l -5.11228,13.05565 c 11.30183,7.41601 18.78029,20.1993 18.78029,34.69652 z"
       id="path1"
       style="fill:#021b79;stroke-width:0.173474" />
    <path
       class="cls-4"
       d="m 305.35004,227.63893 c -9.79954,-46.28111 1.72434,-65.91316 1.72434,-65.91316 h -40.25983 c 0,0 11.52387,19.63205 1.72433,65.91316 l 0.18735,0.14398 17.83312,-53.48721 0.38511,-1.15361 0.38511,1.15361 17.83312,53.48721 z"
       id="path2"
       style="fill:#fff419;stroke-width:0.173474" />
    <path
       class="cls-4"
       d="m 323.5544,205.17926 c 0,20.18716 -16.42278,36.60994 -36.60994,36.60994 -20.18716,0 -36.60994,-16.42278 -36.60994,-36.60994 0,-13.4824 7.32581,-25.28556 18.20609,-31.63818 0.3244,1.51964 0.62451,3.18152 0.88298,4.97697 0.0538,0.37297 0.10409,0.74594 0.15266,1.12064 -8.16021,5.55637 -13.51709,14.92223 -13.51709,25.54057 0,9.96434 4.71849,18.82712 12.0443,24.4737 0.27062,0.2099 0.54471,0.41287 0.82226,0.61236 l 18.01874,-52.1133 18.01874,52.1133 c 0.27756,-0.19949 0.55165,-0.40246 0.82226,-0.61236 7.32581,-5.64658 12.0443,-14.50936 12.0443,-24.4737 0,-10.61834 -5.35861,-19.98593 -13.51882,-25.5423 0.0503,-0.38165 0.10235,-0.75461 0.15439,-1.11891 0.25847,-1.79545 0.55858,-3.45733 0.88298,-4.97697 10.88028,6.35262 18.20609,18.15578 18.20609,31.63818 z"
       id="path3"
       style="fill:#fff419;stroke-width:0.173474" />
    <g
       id="g9"
       transform="matrix(0.17347393,0,0,0.17347393,241.3,157.42709)"
       style="fill:#fff419;fill-opacity:1">
      <path
         class="cls-5"
         d="m 172.71,600.17 c 9.69,0 16.03,3.26 16.03,10.29 v 0.78 h -9 v -0.78 c 0,-2.57 -2.8,-3.31 -7.07,-3.31 h -1.1 c -4.46,0 -7.12,0.69 -7.12,2.07 v 0.37 c 0,1.79 1.75,2.16 10.84,3.17 9.87,1.19 14.01,3.86 14.01,9.23 v 0.46 c 0,5.7 -5.56,9.42 -16.35,9.42 h -1.15 c -11.21,0 -16.81,-3.77 -16.81,-10.75 v -0.69 h 8.96 v 0.69 c 0,3.08 2.85,3.72 7.9,3.72 h 1.1 c 4.55,0 7.26,-0.6 7.26,-2.21 v -0.41 c 0,-1.7 -2.48,-2.16 -11.07,-3.08 -9.09,-0.92 -13.73,-3.54 -13.73,-9.09 v -0.41 c 0,-6.15 6.2,-9.46 16.17,-9.46 h 1.15 z"
         id="path4"
         style="fill:#fff419;fill-opacity:1" />
      <path
         class="cls-5"
         d="m 223.7,600.62 v 7.44 h -21.59 v 4.13 h 19.15 v 6.98 h -19.15 v 4.78 h 21.82 v 7.44 h -31.19 v -30.77 z m -4.18,-9.18 -7.67,5.97 h -7.72 l 5.83,-5.97 h 9.55 z"
         id="path5"
         style="fill:#fff419;fill-opacity:1" />
      <path
         class="cls-5"
         d="m 250.98,600.62 c 6.94,0 10.84,3.95 10.84,9.37 v 1.47 c 0,3.77 -1.93,6.84 -5.19,8.41 l 6.48,11.53 h -10.38 l -5.88,-10.47 h -9.65 v 10.47 h -9.37 v -30.77 h 23.15 z m -13.78,13.09 h 11.62 c 2.43,0 3.54,-0.87 3.54,-2.66 v -0.6 c 0,-1.65 -1.1,-2.71 -3.54,-2.71 H 237.2 Z"
         id="path6"
         style="fill:#fff419;fill-opacity:1" />
      <path
         class="cls-5"
         d="m 289.29,600.62 v 7.62 h -7.44 v 15.52 h 7.44 v 7.62 h -24.21 v -7.62 h 7.44 v -15.52 h -7.44 v -7.62 z"
         id="path7"
         style="fill:#fff419;fill-opacity:1" />
      <path
         class="cls-5"
         d="m 324.2,600.62 v 7.44 h -21.59 v 4.13 h 19.15 v 6.98 h -19.15 v 4.78 h 21.82 v 7.44 h -31.19 v -30.77 z"
         id="path8"
         style="fill:#fff419;fill-opacity:1" />
      <path
         class="cls-5"
         d="m 360.53,600.62 c 6.29,0 11.02,1.88 11.02,7.44 v 0.92 c 0,2.62 -1.1,4.36 -3.45,5.7 v 1.1 c 2.76,1.29 4,3.45 4,6.34 v 1.33 c 0,4.78 -3.63,7.95 -10.98,7.95 h -23.24 v -30.77 h 22.64 z m -13.5,12.13 h 11.85 c 1.93,0 3.31,-0.6 3.31,-2.3 v -0.78 c 0,-1.61 -1.38,-2.25 -3.31,-2.25 h -11.85 z m 0,11.85 h 12.08 c 2.3,0 3.67,-0.78 3.67,-2.57 v -0.74 c 0,-1.88 -1.38,-2.48 -3.67,-2.48 h -12.08 z"
         id="path9"
         style="fill:#fff419;fill-opacity:1" />
    </g>
    <g
       id="g20"
       transform="matrix(0.17347393,0,0,0.17347393,241.3,157.42709)">
      <path
         class="cls-3"
         d="m 30.68,542.63 c 8.53,0 14.94,2.55 14.94,10.08 v 1.24 c 0,3.55 -1.49,5.91 -4.67,7.72 v 1.49 c 3.73,1.74 5.41,4.67 5.41,8.59 v 1.81 c 0,6.47 -4.92,10.77 -14.87,10.77 H 0 v -41.7 z m -18.29,16.43 h 16.06 c 2.61,0 4.48,-0.81 4.48,-3.11 v -1.06 c 0,-2.18 -1.87,-3.05 -4.48,-3.05 H 12.39 Z m 0,16.06 h 16.37 c 3.11,0 4.98,-1.06 4.98,-3.49 v -1 c 0,-2.55 -1.87,-3.36 -4.98,-3.36 H 12.39 v 7.84 z"
         id="path10"
         style="fill:#021b79" />
      <path
         class="cls-3"
         d="m 83.14,542.63 c 9.4,0 14.69,5.35 14.69,12.7 v 1.99 c 0,5.1 -2.61,9.27 -7.03,11.39 l 8.78,15.62 H 85.52 L 77.55,570.14 H 64.48 v 14.19 h -12.7 v -41.7 h 31.37 z m -18.67,17.74 h 15.75 c 3.3,0 4.79,-1.18 4.79,-3.61 v -0.81 c 0,-2.24 -1.49,-3.67 -4.79,-3.67 H 64.47 Z"
         id="path11"
         style="fill:#021b79" />
      <path
         class="cls-3"
         d="m 137.35,542.63 17.92,41.7 h -12.51 l -3.36,-7.84 h -23.59 l -3.36,7.84 h -12.01 l 17.92,-41.7 h 18.98 z m -17.24,23.96 h 15 l -6.22,-14.44 h -2.61 l -6.16,14.44 z"
         id="path12"
         style="fill:#021b79" />
      <path
         class="cls-3"
         d="m 179.67,542.01 c 13.13,0 21.72,4.42 21.72,13.94 v 1.06 h -12.2 v -1.06 c 0,-3.49 -3.8,-4.48 -9.58,-4.48 h -1.49 c -6.04,0 -9.65,0.93 -9.65,2.8 v 0.5 c 0,2.43 2.36,2.92 14.69,4.29 13.38,1.62 18.98,5.23 18.98,12.51 v 0.62 c 0,7.72 -7.53,12.76 -22.16,12.76 h -1.56 c -15.19,0 -22.78,-5.1 -22.78,-14.56 v -0.93 h 12.14 v 0.93 c 0,4.17 3.86,5.04 10.7,5.04 h 1.49 c 6.16,0 9.83,-0.81 9.83,-2.99 v -0.56 c 0,-2.3 -3.36,-2.93 -15,-4.17 -12.32,-1.25 -18.61,-4.79 -18.61,-12.32 v -0.56 c 0,-8.34 8.4,-12.82 21.91,-12.82 h 1.56 z"
         id="path13"
         style="fill:#021b79" />
      <path
         class="cls-3"
         d="m 238.79,542.63 v 10.33 H 228.71 V 574 h 10.08 v 10.33 h -32.8 V 574 h 10.08 v -21.04 h -10.08 v -10.33 z"
         id="path14"
         style="fill:#021b79" />
      <path
         class="cls-3"
         d="M 256.9,542.63 V 574 h 26.45 v 10.33 H 244.2 v -41.7 z"
         id="path15"
         style="fill:#021b79" />
      <path
         class="cls-3"
         d="m 328.84,542.63 v 10.08 h -29.25 v 5.6 h 25.95 v 9.46 h -25.95 v 6.47 h 29.56 v 10.08 h -42.26 v -41.7 h 41.95 z"
         id="path16"
         style="fill:#021b79" />
      <path
         class="cls-3"
         d="m 366.43,542.63 v 10.33 H 356.35 V 574 h 10.08 v 10.33 h -32.8 V 574 h 10.08 v -21.04 h -10.08 v -10.33 z"
         id="path17"
         style="fill:#021b79" />
      <path
         class="cls-3"
         d="m 403.21,542.63 c 9.4,0 14.69,5.35 14.69,12.7 v 1.99 c 0,5.1 -2.61,9.27 -7.03,11.39 l 8.78,15.62 h -14.06 l -7.97,-14.19 h -13.07 v 14.19 h -12.7 v -41.7 h 31.37 z m -18.67,17.74 h 15.75 c 3.3,0 4.79,-1.18 4.79,-3.61 v -0.81 c 0,-2.24 -1.49,-3.67 -4.79,-3.67 h -15.75 z"
         id="path18"
         style="fill:#021b79" />
      <path
         class="cls-3"
         d="m 457.41,542.63 17.92,41.7 h -12.51 l -3.36,-7.84 h -23.59 l -3.36,7.84 H 420.5 l 17.92,-41.7 h 18.98 z m -5.54,-10.58 c 1,0 1.37,-0.75 1.37,-2.99 h 6.35 c 0,5.79 -2.3,8.71 -7.34,8.71 -5.29,0 -6.47,-3.24 -8.65,-3.24 -1.18,0 -1.56,0.93 -1.56,2.99 h -6.29 c 0,-5.73 2.24,-8.65 7.28,-8.65 5.42,0 6.78,3.17 8.84,3.17 z m -11.7,34.54 h 15 l -6.22,-14.44 h -2.61 l -6.16,14.44 z"
         id="path19"
         style="fill:#021b79" />
      <path
         class="cls-3"
         d="m 501.91,542.01 c 13.69,0 24.33,6.78 24.33,19.04 v 4.98 c 0,12.2 -10.64,18.92 -24.33,18.92 h -2.49 c -14,0 -24.83,-6.72 -24.83,-18.92 v -4.98 c 0,-12.26 10.83,-19.04 24.83,-19.04 z m -14.44,19.23 v 4.48 c 0,5.35 4.36,8.28 11.95,8.28 h 1.99 c 7.53,0 11.95,-2.92 11.95,-8.28 v -4.48 c 0,-5.35 -4.42,-8.28 -11.95,-8.28 h -1.99 c -7.59,0 -11.95,2.93 -11.95,8.28 z"
         id="path20"
         style="fill:#021b79" />
    </g>
    <path
       class="cls-3"
       d="m 294.71262,214.24154 c -0.21684,-0.2498 -0.44756,-0.4892 -0.69042,-0.71471 -0.58808,-0.55339 -1.24208,-1.04085 -1.94638,-1.44331 -0.24807,-0.14398 -0.50307,-0.27582 -0.76329,-0.39725 -1.32707,-0.62104 -2.8068,-0.96625 -4.36807,-0.96625 -1.56127,0 -3.0462,0.34695 -4.37328,0.96972 -0.25847,0.11969 -0.51001,0.25153 -0.75634,0.39378 -0.70431,0.40246 -1.3583,0.88645 -1.94638,1.43983 -0.23766,0.22205 -0.46491,0.45624 -0.68002,0.70257 -1.60463,1.82148 -2.57609,4.20848 -2.57609,6.8262 0,0.40593 0.0225,0.80319 0.0694,1.19697 0.0295,0.26715 0.0711,0.5343 0.12317,0.79625 0.21684,1.11544 0.6141,2.16495 1.1588,3.1208 0.18215,0.32092 0.38165,0.62797 0.59676,0.92461 1.41381,1.95852 3.4955,3.40183 5.91199,3.99511 0.35562,0.0902 0.71991,0.15786 1.08941,0.20643 0.45104,0.0624 0.91248,0.0919 1.38259,0.0919 0.47012,0 0.93156,-0.0312 1.38432,-0.0919 0.37124,-0.0486 0.73553,-0.11796 1.09289,-0.20817 2.40782,-0.59154 4.48603,-2.02964 5.89811,-3.98122 0.21684,-0.30012 0.41981,-0.61237 0.60196,-0.93676 0.54644,-0.95585 0.9437,-2.0071 1.16227,-3.12427 0.0538,-0.26541 0.0954,-0.53777 0.1249,-0.81012 0.0451,-0.38859 0.0659,-0.78063 0.0659,-1.17963 0,-2.60904 -0.96798,-4.99258 -2.56394,-6.81232 z m -1.13105,12.29409 -1.62371,0.22725 -1.30626,-1.93249 1.26289,-4.01939 2.19791,-0.76155 1.49882,1.49014 0.61583,0.61236 c -0.17694,1.52137 -0.73206,2.98549 -1.60637,4.2397 z m -2.87273,-6.30404 -1.33921,4.26052 -0.0624,0.19776 h -4.7237 l -0.0625,-0.19776 -1.33922,-4.26052 -0.0607,-0.19602 0.16654,-0.11797 3.49377,-2.48761 0.16306,-0.11623 0.1648,0.11623 3.49377,2.48761 0.16653,0.11797 -0.0625,0.19602 z m 0.23246,-7.62765 c 1.13105,0.53777 2.12506,1.27851 2.95947,2.20659 l -0.1197,0.97319 -0.30011,2.44945 -1.93424,0.66788 -3.63948,-2.5917 v -2.21873 l 2.23955,-1.09463 0.79278,-0.39031 z m -3.9951,-0.96625 c 0.95063,0 1.87005,0.14225 2.73568,0.40593 l -2.73568,1.33922 -2.73569,-1.33922 c 0.86564,-0.26368 1.78331,-0.40593 2.73569,-0.40593 z m -3.99684,0.96799 0.79451,0.38858 2.23781,1.09462 v 2.21873 l -3.63775,2.5917 -1.93423,-0.66787 -0.30011,-2.44945 -0.1197,-0.97319 c 0.83961,-0.93156 1.83362,-1.67403 2.95947,-2.20486 z m -5.41413,8.18276 c 0.0503,-1.79545 0.60196,-3.466 1.52137,-4.87635 l 0.36776,2.99763 z m 1.73648,5.60321 c -0.87431,-1.25421 -1.42943,-2.71833 -1.60637,-4.2397 l 0.61583,-0.61236 1.49882,-1.49014 2.19618,0.76155 1.26289,4.01939 -1.30626,1.93249 -1.62372,-0.22725 -1.0391,-0.14398 z m 0.89165,1.1935 2.1719,0.30358 1.09635,1.90301 c -1.2438,-0.49961 -2.3523,-1.25768 -3.26825,-2.20832 z m 9.378,1.67923 -0.52215,0.90553 c -0.67828,0.1544 -1.37565,0.23246 -2.07301,0.23246 -0.69737,0 -1.3982,-0.0781 -2.07475,-0.23246 l -0.52216,-0.90553 -0.82053,-1.42249 1.24728,-1.84576 h 4.33685 l 1.24727,1.84403 -0.82053,1.42422 z m 0.91942,0.5291 1.09635,-1.90301 2.1719,-0.30358 c -0.91421,0.9489 -2.02445,1.70698 -3.26825,2.20832 z m 4.00551,-10.88376 0.36777,-2.99763 c 0.91941,1.40861 1.47279,3.07916 1.52136,4.87635 z"
       id="path21"
       style="fill:#021b79;stroke-width:0.173474" />
    <path
       fill="#52636f"
       d="m 259.64522,276.52692 c -0.06,-0.61055 -0.31803,-1.04408 -1.13859,-1.17009 -0.78157,-0.12001 -1.1506,0.13501 -1.2151,0.54304 -0.075,0.47254 0.22952,0.70205 1.04408,0.95257 0.34203,0.10501 0.68256,0.21002 1.03208,0.32103 2.02817,0.63155 2.67907,1.48062 2.4926,2.91728 -0.19801,1.61143 -1.65508,2.70682 -4.27474,2.30209 -2.61171,-0.40503 -3.92146,-1.69889 -3.42537,-3.7191 0.82206,0.15151 1.64323,0.28202 2.4728,0.41703 -0.16202,0.63155 0.09,1.1911 1.3021,1.37711 0.92857,0.15002 1.36961,-0.09 1.42961,-0.56704 0.06,-0.42454 -0.17401,-0.66605 -0.87757,-0.88957 l -1.01558,-0.32103 c -2.05201,-0.66305 -2.86568,-1.63528 -2.61171,-3.13165 0.24602,-1.42511 1.51617,-2.5163 3.98102,-2.13137 2.32984,0.36153 3.42523,1.57183 3.22286,3.42927 a 112.70563,112.70563 0 0 1 -2.40919,-0.33002 z m 3.02844,2.88953 0.65405,-5.16776 c 0.80556,0.105 1.60753,0.20701 2.41324,0.29702 -0.18301,1.69094 -0.37653,3.37377 -0.56404,5.06861 -0.12001,1.00358 0.27752,1.55577 1.19859,1.65898 0.92558,0.10501 1.41762,-0.35703 1.52023,-1.36961 0.15901,-1.69079 0.33302,-3.38562 0.49203,-5.07251 0.81007,0.075 1.61533,0.15902 2.42105,0.22652 -0.15001,1.73039 -0.28952,3.45703 -0.42904,5.19147 -0.19501,2.32593 -1.66708,3.54433 -4.23108,3.27056 -2.56791,-0.28203 -3.75465,-1.78605 -3.46108,-4.10403 z m 8.56913,4.4096 0.67506,-8.67639 c 1.2736,0.10501 2.55605,0.19051 3.8301,0.27002 2.00041,0.12001 3.33402,1.32911 3.26261,3.23081 -0.075,1.8894 -1.53597,3.01659 -3.61183,2.89748 a 1540.0774,1540.0774 0 0 1 -1.45212,-0.09 l -0.16351,2.56401 c -0.84457,-0.06 -1.69469,-0.12001 -2.54016,-0.19052 z m 2.84183,-4.45325 c 0.38853,0.03 0.77406,0.045 1.16259,0.075 0.74556,0.045 1.1581,-0.31802 1.1911,-0.92107 0.03,-0.58805 -0.33753,-1.00358 -1.11159,-1.05609 a 177.00849,177.00849 0 0 0 -1.11459,-0.075 c -0.045,0.65855 -0.09,1.3096 -0.13501,1.97266 z m 5.49329,4.92954 0.30152,-8.69229 c 2.09177,0.06 4.19134,0.105 6.28311,0.105 v 2.13527 c -1.29761,0 -2.59971,-0.015 -3.89372,-0.045 l -0.03,1.16259 c 1.11159,0.03 2.22258,0.045 3.33402,0.045 v 2.06776 c -1.12359,0 -2.25048,-0.015 -3.37377,-0.045 l -0.03,1.2151 c 1.3501,0.03 2.69901,0.045 4.04852,0.045 v 2.13137 c -2.21073,0 -4.42955,-0.045 -6.63638,-0.12001 l -0.015,-0.008 z m 15.39993,-2.29413 c 0.03,0.72305 0.075,1.44161 0.10501,2.16317 a 2.8259759,2.8259759 0 0 1 -0.78606,0.13501 c -1.58368,0.06 -2.89344,-0.28502 -3.81031,-2.48075 l -0.10501,-0.25052 c -0.23852,0 -0.48004,0.008 -0.71405,0.015 0.015,0.92858 0.03,1.8654 0.06,2.79428 -0.84607,0.015 -1.69484,0.03 -2.5403,0.03 l -0.045,-8.70805 c 1.32611,0 2.64742,-0.03 3.98102,-0.06 2.01616,-0.06 3.44503,0.89707 3.54028,2.87768 0.06,1.33811 -0.59104,2.21072 -1.79789,2.57195 0.57905,0.98408 1.2151,0.98408 1.72649,0.96008 a 1.8853069,1.8853069 0 0 0 0.40953,-0.045 v 0.004 z m -5.38993,-4.27459 0.03,1.88925 1.35311,-0.03 c 0.74556,-0.03 1.09959,-0.42453 1.08309,-0.98408 -0.015,-0.55204 -0.39754,-0.92857 -1.1671,-0.90457 z m 6.34641,6.43776 -0.44404,-8.6923 c 1.2781,-0.075 2.55606,-0.15001 3.83416,-0.23851 2.04001,-0.15152 3.1594,0.66755 3.28631,2.07571 a 1.9329357,1.9329357 0 0 1 -1.3096,2.01241 c 1.04408,0.18602 1.77809,0.72156 1.8813,1.8138 0.15001,1.60348 -0.91358,2.5958 -2.95299,2.75452 -1.43261,0.10501 -2.86568,0.19801 -4.30639,0.27452 z m 2.20682,-5.40193 c 0.40954,-0.03 0.81307,-0.06 1.2226,-0.09 0.60305,-0.045 0.88507,-0.39753 0.84607,-0.90457 -0.045,-0.51154 -0.36453,-0.80107 -0.96008,-0.75456 l -1.2106,0.09 0.10501,1.65898 z m 0.22202,3.47698 c 0.41253,-0.03 0.82207,-0.06 1.2301,-0.09 0.70656,-0.06 1.04858,-0.39753 1.00058,-0.94508 -0.045,-0.55204 -0.41703,-0.83406 -1.12359,-0.77856 l -1.2226,0.09 c 0.045,0.57604 0.075,1.15059 0.10501,1.72259 z m 5.86622,1.3051 -0.81307,-8.66439 c 2.06792,-0.20702 4.12788,-0.44104 6.18785,-0.71106 l 0.27002,2.10752 c -1.2706,0.16651 -2.54015,0.32553 -3.81825,0.46504 l 0.12,1.15959 c 1.11159,-0.12001 2.20683,-0.25352 3.31422,-0.40053 0.09,0.68255 0.17401,1.36961 0.25352,2.05201 -1.11159,0.15001 -2.23053,0.27452 -3.34587,0.39753 l 0.13501,1.2151 c 1.34111,-0.15151 2.68312,-0.31803 4.02062,-0.48754 l 0.27003,2.10752 c -2.19888,0.29402 -4.39776,0.54304 -6.59663,0.76206 z m 9.62897,-1.1911 -0.94508,-6.50136 -2.25438,0.32102 -0.27752,-2.10362 c 2.30209,-0.31802 4.60402,-0.67805 6.89425,-1.08758 0.12001,0.70205 0.23852,1.40111 0.36453,2.10361 -0.75756,0.13501 -1.52007,0.26553 -2.28618,0.38854 l 1.03208,6.48936 c -0.84157,0.15002 -1.68283,0.26552 -2.5283,0.38853 z"
       id="path5-6"
       style="fill:#d70523;fill-opacity:1;stroke-width:3.96907" />
  </g>
</svg>
